  0
SECTION
  2
HEADER
  9
$ACADVER
  1
AC1024
  9
$ACADMAINTVER
 70
6
  9
$DWGCODEPAGE
  3
ANSI_1252
  9
$LASTSAVEDBY
  1
ezdxf
  9
$INSBASE
 10
0.0
 20
0.0
 30
0.0
  9
$EXTMIN
 10
1e+20
 20
1e+20
 30
1e+20
  9
$EXTMAX
 10
-1e+20
 20
-1e+20
 30
-1e+20
  9
$LIMMIN
 10
0.0
 20
0.0
  9
$LIMMAX
 10
420.0
 20
297.0
  9
$ORTHOMODE
 70
0
  9
$REGENMODE
 70
1
  9
$FILLMODE
 70
1
  9
$QTEXTMODE
 70
0
  9
$MIRRTEXT
 70
1
  9
$LTSCALE
 40
1.0
  9
$ATTMODE
 70
1
  9
$TEXTSIZE
 40
2.5
  9
$TRACEWID
 40
1.0
  9
$TEXTSTYLE
  7
Standard
  9
$CLAYER
  8
0
  9
$CELTYPE
  6
ByLayer
  9
$CECOLOR
 62
256
  9
$CELTSCALE
 40
1.0
  9
$DISPSILH
 70
0
  9
$DIMSCALE
 40
1.0
  9
$DIMASZ
 40
2.5
  9
$DIMEXO
 40
0.625
  9
$DIMDLI
 40
3.75
  9
$DIMRND
 40
0.0
  9
$DIMDLE
 40
0.0
  9
$DIMEXE
 40
1.25
  9
$DIMTP
 40
0.0
  9
$DIMTM
 40
0.0
  9
$DIMTXT
 40
2.5
  9
$DIMCEN
 40
2.5
  9
$DIMTSZ
 40
0.0
  9
$DIMTOL
 70
0
  9
$DIMLIM
 70
0
  9
$DIMTIH
 70
0
  9
$DIMTOH
 70
0
  9
$DIMSE1
 70
0
  9
$DIMSE2
 70
0
  9
$DIMTAD
 70
1
  9
$DIMZIN
 70
8
  9
$DIMBLK
  1

  9
$DIMASO
 70
1
  9
$DIMSHO
 70
1
  9
$DIMPOST
  1

  9
$DIMAPOST
  1

  9
$DIMALT
 70
0
  9
$DIMALTD
 70
3
  9
$DIMALTF
 40
0.03937007874
  9
$DIMLFAC
 40
1.0
  9
$DIMTOFL
 70
1
  9
$DIMTVP
 40
0.0
  9
$DIMTIX
 70
0
  9
$DIMSOXD
 70
0
  9
$DIMSAH
 70
0
  9
$DIMBLK1
  1

  9
$DIMBLK2
  1

  9
$DIMSTYLE
  2
ISO-25
  9
$DIMCLRD
 70
0
  9
$DIMCLRE
 70
0
  9
$DIMCLRT
 70
0
  9
$DIMTFAC
 40
1.0
  9
$DIMGAP
 40
0.625
  9
$DIMJUST
 70
0
  9
$DIMSD1
 70
0
  9
$DIMSD2
 70
0
  9
$DIMTOLJ
 70
0
  9
$DIMTZIN
 70
8
  9
$DIMALTZ
 70
0
  9
$DIMALTTZ
 70
0
  9
$DIMUPT
 70
0
  9
$DIMDEC
 70
2
  9
$DIMTDEC
 70
2
  9
$DIMALTU
 70
2
  9
$DIMALTTD
 70
3
  9
$DIMTXSTY
  7
Standard
  9
$DIMAUNIT
 70
0
  9
$DIMADEC
 70
0
  9
$DIMALTRND
 40
0.0
  9
$DIMAZIN
 70
0
  9
$DIMDSEP
 70
44
  9
$DIMATFIT
 70
3
  9
$DIMFRAC
 70
0
  9
$DIMLDRBLK
  1

  9
$DIMLUNIT
 70
2
  9
$DIMLWD
 70
-2
  9
$DIMLWE
 70
-2
  9
$DIMTMOVE
 70
0
  9
$DIMFXL
 40
1.0
  9
$DIMFXLON
 70
0
  9
$DIMJOGANG
 40
0.785398163397
  9
$DIMTFILL
 70
0
  9
$DIMTFILLCLR
 70
0
  9
$DIMARCSYM
 70
0
  9
$DIMLTYPE
  6

  9
$DIMLTEX1
  6

  9
$DIMLTEX2
  6

  9
$DIMTXTDIRECTION
 70
0
  9
$LUNITS
 70
2
  9
$LUPREC
 70
4
  9
$SKETCHINC
 40
1.0
  9
$FILLETRAD
 40
10.0
  9
$AUNITS
 70
0
  9
$AUPREC
 70
2
  9
$MENU
  1
.
  9
$ELEVATION
 40
0.0
  9
$PELEVATION
 40
0.0
  9
$THICKNESS
 40
0.0
  9
$LIMCHECK
 70
0
  9
$CHAMFERA
 40
0.0
  9
$CHAMFERB
 40
0.0
  9
$CHAMFERC
 40
0.0
  9
$CHAMFERD
 40
0.0
  9
$SKPOLY
 70
0
  9
$TDCREATE
 40
2461085.110763889
  9
$TDUCREATE
 40
2458532.153996898
  9
$TDUPDATE
 40
2461085.110763889
  9
$TDUUPDATE
 40
2458532.1544311
  9
$TDINDWG
 40
0.0
  9
$TDUSRTIMER
 40
0.0
  9
$USRTIMER
 70
1
  9
$ANGBASE
 50
0.0
  9
$ANGDIR
 70
0
  9
$PDMODE
 70
34
  9
$PDSIZE
 40
1.5
  9
$PLINEWID
 40
0.0
  9
$SPLFRAME
 70
0
  9
$SPLINETYPE
 70
6
  9
$SPLINESEGS
 70
8
  9
$HANDSEED
  5
223
  9
$SURFTAB1
 70
6
  9
$SURFTAB2
 70
6
  9
$SURFTYPE
 70
6
  9
$SURFU
 70
6
  9
$SURFV
 70
6
  9
$UCSBASE
  2

  9
$UCSNAME
  2

  9
$UCSORG
 10
0.0
 20
0.0
 30
0.0
  9
$UCSXDIR
 10
1.0
 20
0.0
 30
0.0
  9
$UCSYDIR
 10
0.0
 20
1.0
 30
0.0
  9
$UCSORTHOREF
  2

  9
$UCSORTHOVIEW
 70
0
  9
$UCSORGTOP
 10
0.0
 20
0.0
 30
0.0
  9
$UCSORGBOTTOM
 10
0.0
 20
0.0
 30
0.0
  9
$UCSORGLEFT
 10
0.0
 20
0.0
 30
0.0
  9
$UCSORGRIGHT
 10
0.0
 20
0.0
 30
0.0
  9
$UCSORGFRONT
 10
0.0
 20
0.0
 30
0.0
  9
$UCSORGBACK
 10
0.0
 20
0.0
 30
0.0
  9
$PUCSBASE
  2

  9
$PUCSNAME
  2

  9
$PUCSORG
 10
0.0
 20
0.0
 30
0.0
  9
$PUCSXDIR
 10
1.0
 20
0.0
 30
0.0
  9
$PUCSYDIR
 10
0.0
 20
1.0
 30
0.0
  9
$PUCSORTHOREF
  2

  9
$PUCSORTHOVIEW
 70
0
  9
$PUCSORGTOP
 10
0.0
 20
0.0
 30
0.0
  9
$PUCSORGBOTTOM
 10
0.0
 20
0.0
 30
0.0
  9
$PUCSORGLEFT
 10
0.0
 20
0.0
 30
0.0
  9
$PUCSORGRIGHT
 10
0.0
 20
0.0
 30
0.0
  9
$PUCSORGFRONT
 10
0.0
 20
0.0
 30
0.0
  9
$PUCSORGBACK
 10
0.0
 20
0.0
 30
0.0
  9
$USERI1
 70
0
  9
$USERI2
 70
0
  9
$USERI3
 70
0
  9
$USERI4
 70
0
  9
$USERI5
 70
0
  9
$USERR1
 40
0.0
  9
$USERR2
 40
0.0
  9
$USERR3
 40
0.0
  9
$USERR4
 40
0.0
  9
$USERR5
 40
0.0
  9
$WORLDVIEW
 70
1
  9
$SHADEDGE
 70
3
  9
$SHADEDIF
 70
70
  9
$TILEMODE
 70
1
  9
$MAXACTVP
 70
64
  9
$PINSBASE
 10
0.0
 20
0.0
 30
0.0
  9
$PLIMCHECK
 70
0
  9
$PEXTMIN
 10
1e+20
 20
1e+20
 30
1e+20
  9
$PEXTMAX
 10
-1e+20
 20
-1e+20
 30
-1e+20
  9
$PLIMMIN
 10
0.0
 20
0.0
  9
$PLIMMAX
 10
420.0
 20
297.0
  9
$UNITMODE
 70
0
  9
$VISRETAIN
 70
1
  9
$PLINEGEN
 70
0
  9
$PSLTSCALE
 70
1
  9
$TREEDEPTH
 70
3020
  9
$CMLSTYLE
  2
Standard
  9
$CMLJUST
 70
0
  9
$CMLSCALE
 40
20.0
  9
$PROXYGRAPHICS
 70
1
  9
$MEASUREMENT
 70
1
  9
$CELWEIGHT
370
-1
  9
$ENDCAPS
280
0
  9
$JOINSTYLE
280
0
  9
$LWDISPLAY
290
0
  9
$INSUNITS
 70
6
  9
$HYPERLINKBASE
  1

  9
$STYLESHEET
  1

  9
$XEDIT
290
1
  9
$CEPSNTYPE
380
0
  9
$PSTYLEMODE
290
1
  9
$FINGERPRINTGUID
  2
{A78A9902-0047-4717-8F69-28615975541C}
  9
$VERSIONGUID
  2
{A6D1661D-4B00-4C81-8A92-47E2DBCD6E5F}
  9
$EXTNAMES
290
1
  9
$PSVPSCALE
 40
0.0
  9
$OLESTARTUP
290
0
  9
$SORTENTS
280
127
  9
$INDEXCTL
280
0
  9
$HIDETEXT
280
1
  9
$XCLIPFRAME
280
2
  9
$HALOGAP
280
0
  9
$OBSCOLOR
 70
257
  9
$OBSLTYPE
280
0
  9
$INTERSECTIONDISPLAY
280
0
  9
$INTERSECTIONCOLOR
 70
257
  9
$DIMASSOC
280
2
  9
$PROJECTNAME
  1

  9
$CAMERADISPLAY
290
0
  9
$LENSLENGTH
 40
50.0
  9
$CAMERAHEIGHT
 40
0.0
  9
$STEPSPERSEC
 40
24.0
  9
$STEPSIZE
 40
100.0
  9
$3DDWFPREC
 40
2.0
  9
$PSOLWIDTH
 40
0.005
  9
$PSOLHEIGHT
 40
0.08
  9
$LOFTANG1
 40
1.570796326795
  9
$LOFTANG2
 40
1.570796326795
  9
$LOFTMAG1
 40
0.0
  9
$LOFTMAG2
 40
0.0
  9
$LOFTPARAM
 70
7
  9
$LOFTNORMALS
280
1
  9
$LATITUDE
 40
37.795
  9
$LONGITUDE
 40
-122.394
  9
$NORTHDIRECTION
 40
0.0
  9
$TIMEZONE
 70
-8000
  9
$LIGHTGLYPHDISPLAY
280
1
  9
$TILEMODELIGHTSYNCH
280
1
  9
$CMATERIAL
347
20
  9
$SOLIDHIST
280
0
  9
$SHOWHIST
280
1
  9
$DWFFRAME
280
2
  9
$DGNFRAME
280
2
  9
$REALWORLDSCALE
290
1
  9
$INTERFERECOLOR
 62
256
  9
$CSHADOW
280
0
  9
$SHADOWPLANELOCATION
 40
0.0
  0
ENDSEC
  0
SECTION
  2
CLASSES
  0
CLASS
  1
ACDBDICTIONARYWDFLT
  2
AcDbDictionaryWithDefault
  3
ObjectDBX Classes
 90
0
 91
0
280
0
281
0
  0
CLASS
  1
SUN
  2
AcDbSun
  3
SCENEOE
 90
1153
 91
0
280
0
281
0
  0
CLASS
  1
VISUALSTYLE
  2
AcDbVisualStyle
  3
ObjectDBX Classes
 90
4095
 91
0
280
0
281
0
  0
CLASS
  1
MATERIAL
  2
AcDbMaterial
  3
ObjectDBX Classes
 90
1153
 91
0
280
0
281
0
  0
CLASS
  1
SCALE
  2
AcDbScale
  3
ObjectDBX Classes
 90
1153
 91
0
280
0
281
0
  0
CLASS
  1
TABLESTYLE
  2
AcDbTableStyle
  3
ObjectDBX Classes
 90
4095
 91
0
280
0
281
0
  0
CLASS
  1
MLEADERSTYLE
  2
AcDbMLeaderStyle
  3
ACDB_MLEADERSTYLE_CLASS
 90
4095
 91
0
280
0
281
0
  0
CLASS
  1
DICTIONARYVAR
  2
AcDbDictionaryVar
  3
ObjectDBX Classes
 90
0
 91
0
280
0
281
0
  0
CLASS
  1
CELLSTYLEMAP
  2
AcDbCellStyleMap
  3
ObjectDBX Classes
 90
1152
 91
0
280
0
281
0
  0
CLASS
  1
MENTALRAYRENDERSETTINGS
  2
AcDbMentalRayRenderSettings
  3
SCENEOE
 90
1024
 91
0
280
0
281
0
  0
CLASS
  1
ACDBDETAILVIEWSTYLE
  2
AcDbDetailViewStyle
  3
ObjectDBX Classes
 90
1025
 91
0
280
0
281
0
  0
CLASS
  1
ACDBSECTIONVIEWSTYLE
  2
AcDbSectionViewStyle
  3
ObjectDBX Classes
 90
1025
 91
0
280
0
281
0
  0
CLASS
  1
RASTERVARIABLES
  2
AcDbRasterVariables
  3
ISM
 90
0
 91
0
280
0
281
0
  0
CLASS
  1
ACDBPLACEHOLDER
  2
AcDbPlaceHolder
  3
ObjectDBX Classes
 90
0
 91
0
280
0
281
0
  0
CLASS
  1
LAYOUT
  2
AcDbLayout
  3
ObjectDBX Classes
 90
0
 91
0
280
0
281
0
  0
ENDSEC
  0
SECTION
  2
TABLES
  0
TABLE
  2
VPORT
  5
8
330
0
100
AcDbSymbolTable
 70
1
  0
VPORT
  5
23
330
8
100
AcDbSymbolTableRecord
100
AcDbViewportTableRecord
  2
*Active
 70
0
 10
0.0
 20
0.0
 11
1.0
 21
1.0
 12
0.0
 22
0.0
 13
0.0
 23
0.0
 14
0.5
 24
0.5
 15
0.5
 25
0.5
 16
0.0
 26
0.0
 36
1.0
 17
0.0
 27
0.0
 37
0.0
 40
1000.0
 41
1.34
 42
50.0
 43
0.0
 44
0.0
 50
0.0
 51
0.0
 71
0
 72
1000
 73
1
 74
3
 75
0
 76
0
 77
0
 78
0
281
0
 65
0
146
0.0
  0
ENDTAB
  0
TABLE
  2
LTYPE
  5
2
330
0
100
AcDbSymbolTable
 70
3
  0
LTYPE
  5
24
330
2
100
AcDbSymbolTableRecord
100
AcDbLinetypeTableRecord
  2
ByBlock
 70
0
  3

 72
65
 73
0
 40
0.0
  0
LTYPE
  5
25
330
2
100
AcDbSymbolTableRecord
100
AcDbLinetypeTableRecord
  2
ByLayer
 70
0
  3

 72
65
 73
0
 40
0.0
  0
LTYPE
  5
26
330
2
100
AcDbSymbolTableRecord
100
AcDbLinetypeTableRecord
  2
Continuous
 70
0
  3

 72
65
 73
0
 40
0.0
  0
ENDTAB
  0
TABLE
  2
LAYER
  5
1
330
0
100
AcDbSymbolTable
 70
3
  0
LAYER
  5
27
330
1
100
AcDbSymbolTableRecord
100
AcDbLayerTableRecord
  2
0
 70
0
 62
7
  6
Continuous
370
-3
390
13
347
21
  0
LAYER
  5
28
330
1
100
AcDbSymbolTableRecord
100
AcDbLayerTableRecord
  2
Defpoints
 70
0
 62
7
  6
Continuous
290
0
370
-3
390
13
347
21
  0
LAYER
  5
2F
330
1
100
AcDbSymbolTableRecord
100
AcDbLayerTableRecord
  2
Puntos
 70
0
 62
1
  6
Continuous
370
-3
390
13
347
21
  0
ENDTAB
  0
TABLE
  2
STYLE
  5
5
330
0
100
AcDbSymbolTable
 70
1
  0
STYLE
  5
29
330
5
100
AcDbSymbolTableRecord
100
AcDbTextStyleTableRecord
  2
Standard
 70
0
 40
0.0
 41
1.0
 50
0.0
 71
0
 42
2.5
  3
txt
  4

  0
ENDTAB
  0
TABLE
  2
VIEW
  5
7
330
0
100
AcDbSymbolTable
 70
0
  0
ENDTAB
  0
TABLE
  2
UCS
  5
6
330
0
100
AcDbSymbolTable
 70
0
  0
ENDTAB
  0
TABLE
  2
APPID
  5
3
330
0
100
AcDbSymbolTable
 70
3
  0
APPID
  5
2A
330
3
100
AcDbSymbolTableRecord
100
AcDbRegAppTableRecord
  2
ACAD
 70
0
  0
APPID
  5
220
330
3
100
AcDbSymbolTableRecord
100
AcDbRegAppTableRecord
  2
HATCHBACKGROUNDCOLOR
 70
0
  0
APPID
  5
221
330
3
100
AcDbSymbolTableRecord
100
AcDbRegAppTableRecord
  2
EZDXF
 70
0
  0
ENDTAB
  0
TABLE
  2
DIMSTYLE
  5
4
330
0
100
AcDbSymbolTable
 70
1
100
AcDbDimStyleTable
  0
DIMSTYLE
105
2B
330
4
100
AcDbSymbolTableRecord
100
AcDbDimStyleTableRecord
  2
Standard
 70
0
 40
1.0
 41
2.5
 42
0.625
 43
3.75
 44
1.25
 45
0.0
 46
0.0
 47
0.0
 48
0.0
 49
2.5
140
2.5
141
2.5
142
0.0
143
0.03937007874
144
1.0
145
0.0
146
1.0
147
0.625
148
0.0
 69
0
 70
0
 71
0
 72
0
 73
0
 74
0
 75
0
 76
0
 77
1
 78
8
 79
3
170
0
171
3
172
1
173
0
174
0
175
0
176
0
177
0
178
0
179
2
271
2
272
2
273
2
274
3
275
0
276
0
277
2
278
44
279
0
280
0
281
0
282
0
283
0
284
8
285
0
286
0
288
0
289
3
290
0
371
-2
372
-2
  0
ENDTAB
  0
TABLE
  2
BLOCK_RECORD
  5
9
330
0
100
AcDbSymbolTable
 70
2
  0
BLOCK_RECORD
  5
17
330
9
100
AcDbSymbolTableRecord
100
AcDbBlockTableRecord
  2
*Model_Space
340
1A
 70
0
280
1
281
0
  0
BLOCK_RECORD
  5
1B
330
9
100
AcDbSymbolTableRecord
100
AcDbBlockTableRecord
  2
*Paper_Space
340
1E
 70
0
280
1
281
0
  0
ENDTAB
  0
ENDSEC
  0
SECTION
  2
BLOCKS
  0
BLOCK
  5
18
330
17
100
AcDbEntity
  8
0
100
AcDbBlockBegin
  2
*Model_Space
 70
0
 10
0.0
 20
0.0
 30
0.0
  3
*Model_Space
  1

  0
ENDBLK
  5
19
330
17
100
AcDbEntity
  8
0
100
AcDbBlockEnd
  0
BLOCK
  5
1C
330
1B
100
AcDbEntity
  8
0
100
AcDbBlockBegin
  2
*Paper_Space
 70
0
 10
0.0
 20
0.0
 30
0.0
  3
*Paper_Space
  1

  0
ENDBLK
  5
1D
330
1B
100
AcDbEntity
  8
0
100
AcDbBlockEnd
  0
ENDSEC
  0
SECTION
  2
ENTITIES
  0
POINT
  5
30
330
17
100
AcDbEntity
  8
Puntos
 62
1
100
AcDbPoint
 10
357823.6011659444
 20
4146201.1549117407
 30
7.492478847503662
  0
POINT
  5
31
330
17
100
AcDbEntity
  8
Puntos
 62
1
100
AcDbPoint
 10
357973.6011659444
 20
4146201.1549117407
 30
7.3455939292907715
  0
POINT
  5
32
330
17
100
AcDbEntity
  8
Puntos
 62
1
100
AcDbPoint
 10
358123.6011659444
 20
4146201.1549117407
 30
7.354112148284912
  0
POINT
  5
33
330
17
100
AcDbEntity
  8
Puntos
 62
1
100
AcDbPoint
 10
358273.6011659444
 20
4146201.1549117407
 30
7.462240695953369
  0
POINT
  5
34
330
17
100
AcDbEntity
  8
Puntos
 62
1
100
AcDbPoint
 10
358423.6011659444
 20
4146201.1549117407
 30
7.5
  0
POINT
  5
35
330
17
100
AcDbEntity
  8
Puntos
 62
1
100
AcDbPoint
 10
358573.6011659444
 20
4146201.1549117407
 30
8.29771900177002
  0
POINT
  5
36
330
17
100
AcDbEntity
  8
Puntos
 62
1
100
AcDbPoint
 10
358723.6011659444
 20
4146201.1549117407
 30
9.086311340332031
  0
POINT
  5
37
330
17
100
AcDbEntity
  8
Puntos
 62
1
100
AcDbPoint
 10
358873.6011659444
 20
4146201.1549117407
 30
9.740072250366211
  0
POINT
  5
38
330
17
100
AcDbEntity
  8
Puntos
 62
1
100
AcDbPoint
 10
359023.6011659444
 20
4146201.1549117407
 30
9.99988079071045
  0
POINT
  5
39
330
17
100
AcDbEntity
  8
Puntos
 62
1
100
AcDbPoint
 10
359173.6011659444
 20
4146201.1549117407
 30
10.931044578552246
  0
POINT
  5
3A
330
17
100
AcDbEntity
  8
Puntos
 62
1
100
AcDbPoint
 10
359323.6011659444
 20
4146201.1549117407
 30
12.165922164916992
  0
POINT
  5
3B
330
17
100
AcDbEntity
  8
Puntos
 62
1
100
AcDbPoint
 10
359473.6011659444
 20
4146201.1549117407
 30
14.788407325744629
  0
POINT
  5
3C
330
17
100
AcDbEntity
  8
Puntos
 62
1
100
AcDbPoint
 10
359623.6011659444
 20
4146201.1549117407
 30
20.584341049194336
  0
POINT
  5
3D
330
17
100
AcDbEntity
  8
Puntos
 62
1
100
AcDbPoint
 10
359773.6011659444
 20
4146201.1549117407
 30
33.297176361083984
  0
POINT
  5
3E
330
17
100
AcDbEntity
  8
Puntos
 62
1
100
AcDbPoint
 10
359923.6011659444
 20
4146201.1549117407
 30
32.49998092651367
  0
POINT
  5
3F
330
17
100
AcDbEntity
  8
Puntos
 62
1
100
AcDbPoint
 10
360223.6011659444
 20
4146201.1549117407
 30
36.86994171142578
  0
POINT
  5
40
330
17
100
AcDbEntity
  8
Puntos
 62
1
100
AcDbPoint
 10
360373.6011659444
 20
4146201.1549117407
 30
35.891441345214844
  0
POINT
  5
41
330
17
100
AcDbEntity
  8
Puntos
 62
1
100
AcDbPoint
 10
360523.6011659444
 20
4146201.1549117407
 30
35.00054931640625
  0
POINT
  5
42
330
17
100
AcDbEntity
  8
Puntos
 62
1
100
AcDbPoint
 10
360673.6011659444
 20
4146201.1549117407
 30
34.722755432128906
  0
POINT
  5
43
330
17
100
AcDbEntity
  8
Puntos
 62
1
100
AcDbPoint
 10
357823.6011659444
 20
4146351.1549117407
 30
7.4999284744262695
  0
POINT
  5
44
330
17
100
AcDbEntity
  8
Puntos
 62
1
100
AcDbPoint
 10
357973.6011659444
 20
4146351.1549117407
 30
7.799500942230225
  0
POINT
  5
45
330
17
100
AcDbEntity
  8
Puntos
 62
1
100
AcDbPoint
 10
358123.6011659444
 20
4146351.1549117407
 30
7.49768590927124
  0
POINT
  5
46
330
17
100
AcDbEntity
  8
Puntos
 62
1
100
AcDbPoint
 10
358273.6011659444
 20
4146351.1549117407
 30
7.987801551818848
  0
POINT
  5
47
330
17
100
AcDbEntity
  8
Puntos
 62
1
100
AcDbPoint
 10
358423.6011659444
 20
4146351.1549117407
 30
8.199641227722168
  0
POINT
  5
48
330
17
100
AcDbEntity
  8
Puntos
 62
1
100
AcDbPoint
 10
358573.6011659444
 20
4146351.1549117407
 30
8.825671195983887
  0
POINT
  5
49
330
17
100
AcDbEntity
  8
Puntos
 62
1
100
AcDbPoint
 10
358723.6011659444
 20
4146351.1549117407
 30
9.541915893554688
  0
POINT
  5
4A
330
17
100
AcDbEntity
  8
Puntos
 62
1
100
AcDbPoint
 10
358873.6011659444
 20
4146351.1549117407
 30
10.004068374633789
  0
POINT
  5
4B
330
17
100
AcDbEntity
  8
Puntos
 62
1
100
AcDbPoint
 10
359023.6011659444
 20
4146351.1549117407
 30
10.290450096130371
  0
POINT
  5
4C
330
17
100
AcDbEntity
  8
Puntos
 62
1
100
AcDbPoint
 10
359173.6011659444
 20
4146351.1549117407
 30
11.345662117004395
  0
POINT
  5
4D
330
17
100
AcDbEntity
  8
Puntos
 62
1
100
AcDbPoint
 10
359323.6011659444
 20
4146351.1549117407
 30
12.568710327148438
  0
POINT
  5
4E
330
17
100
AcDbEntity
  8
Puntos
 62
1
100
AcDbPoint
 10
359473.6011659444
 20
4146351.1549117407
 30
18.025419235229492
  0
POINT
  5
4F
330
17
100
AcDbEntity
  8
Puntos
 62
1
100
AcDbPoint
 10
359623.6011659444
 20
4146351.1549117407
 30
29.558204650878906
  0
POINT
  5
50
330
17
100
AcDbEntity
  8
Puntos
 62
1
100
AcDbPoint
 10
359773.6011659444
 20
4146351.1549117407
 30
29.86984634399414
  0
POINT
  5
51
330
17
100
AcDbEntity
  8
Puntos
 62
1
100
AcDbPoint
 10
359923.6011659444
 20
4146351.1549117407
 30
32.03773880004883
  0
POINT
  5
52
330
17
100
AcDbEntity
  8
Puntos
 62
1
100
AcDbPoint
 10
360073.6011659444
 20
4146351.1549117407
 30
35.15228271484375
  0
POINT
  5
53
330
17
100
AcDbEntity
  8
Puntos
 62
1
100
AcDbPoint
 10
360223.6011659444
 20
4146351.1549117407
 30
37.5
  0
POINT
  5
54
330
17
100
AcDbEntity
  8
Puntos
 62
1
100
AcDbPoint
 10
360373.6011659444
 20
4146351.1549117407
 30
37.5
  0
POINT
  5
55
330
17
100
AcDbEntity
  8
Puntos
 62
1
100
AcDbPoint
 10
360523.6011659444
 20
4146351.1549117407
 30
34.631988525390625
  0
POINT
  5
56
330
17
100
AcDbEntity
  8
Puntos
 62
1
100
AcDbPoint
 10
360673.6011659444
 20
4146351.1549117407
 30
35.000003814697266
  0
POINT
  5
57
330
17
100
AcDbEntity
  8
Puntos
 62
1
100
AcDbPoint
 10
357823.6011659444
 20
4146501.1549117407
 30
8.792531967163086
  0
POINT
  5
58
330
17
100
AcDbEntity
  8
Puntos
 62
1
100
AcDbPoint
 10
357973.6011659444
 20
4146501.1549117407
 30
9.375961303710938
  0
POINT
  5
59
330
17
100
AcDbEntity
  8
Puntos
 62
1
100
AcDbPoint
 10
358123.6011659444
 20
4146501.1549117407
 30
9.679413795471191
  0
POINT
  5
5A
330
17
100
AcDbEntity
  8
Puntos
 62
1
100
AcDbPoint
 10
358273.6011659444
 20
4146501.1549117407
 30
9.312912940979004
  0
POINT
  5
5B
330
17
100
AcDbEntity
  8
Puntos
 62
1
100
AcDbPoint
 10
358423.6011659444
 20
4146501.1549117407
 30
9.14745044708252
  0
POINT
  5
5C
330
17
100
AcDbEntity
  8
Puntos
 62
1
100
AcDbPoint
 10
358573.6011659444
 20
4146501.1549117407
 30
9.697675704956055
  0
POINT
  5
5D
330
17
100
AcDbEntity
  8
Puntos
 62
1
100
AcDbPoint
 10
358723.6011659444
 20
4146501.1549117407
 30
9.932665824890137
  0
POINT
  5
5E
330
17
100
AcDbEntity
  8
Puntos
 62
1
100
AcDbPoint
 10
358873.6011659444
 20
4146501.1549117407
 30
9.999998092651367
  0
POINT
  5
5F
330
17
100
AcDbEntity
  8
Puntos
 62
1
100
AcDbPoint
 10
359023.6011659444
 20
4146501.1549117407
 30
10.655257225036621
  0
POINT
  5
60
330
17
100
AcDbEntity
  8
Puntos
 62
1
100
AcDbPoint
 10
359173.6011659444
 20
4146501.1549117407
 30
11.850554466247559
  0
POINT
  5
61
330
17
100
AcDbEntity
  8
Puntos
 62
1
100
AcDbPoint
 10
359323.6011659444
 20
4146501.1549117407
 30
13.952433586120605
  0
POINT
  5
62
330
17
100
AcDbEntity
  8
Puntos
 62
1
100
AcDbPoint
 10
359473.6011659444
 20
4146501.1549117407
 30
19.04586410522461
  0
POINT
  5
63
330
17
100
AcDbEntity
  8
Puntos
 62
1
100
AcDbPoint
 10
359623.6011659444
 20
4146501.1549117407
 30
28.39445686340332
  0
POINT
  5
64
330
17
100
AcDbEntity
  8
Puntos
 62
1
100
AcDbPoint
 10
359773.6011659444
 20
4146501.1549117407
 30
28.529253005981445
  0
POINT
  5
65
330
17
100
AcDbEntity
  8
Puntos
 62
1
100
AcDbPoint
 10
359923.6011659444
 20
4146501.1549117407
 30
30.6199951171875
  0
POINT
  5
66
330
17
100
AcDbEntity
  8
Puntos
 62
1
100
AcDbPoint
 10
360073.6011659444
 20
4146501.1549117407
 30
33.268131256103516
  0
POINT
  5
67
330
17
100
AcDbEntity
  8
Puntos
 62
1
100
AcDbPoint
 10
360223.6011659444
 20
4146501.1549117407
 30
35.88365173339844
  0
POINT
  5
68
330
17
100
AcDbEntity
  8
Puntos
 62
1
100
AcDbPoint
 10
360373.6011659444
 20
4146501.1549117407
 30
32.49763488769531
  0
POINT
  5
69
330
17
100
AcDbEntity
  8
Puntos
 62
1
100
AcDbPoint
 10
360523.6011659444
 20
4146501.1549117407
 30
32.500003814697266
  0
POINT
  5
6A
330
17
100
AcDbEntity
  8
Puntos
 62
1
100
AcDbPoint
 10
360673.6011659444
 20
4146501.1549117407
 30
32.5
  0
POINT
  5
6B
330
17
100
AcDbEntity
  8
Puntos
 62
1
100
AcDbPoint
 10
357823.6011659444
 20
4146651.1549117407
 30
10.016908645629883
  0
POINT
  5
6C
330
17
100
AcDbEntity
  8
Puntos
 62
1
100
AcDbPoint
 10
357973.6011659444
 20
4146651.1549117407
 30
10.000587463378906
  0
POINT
  5
6D
330
17
100
AcDbEntity
  8
Puntos
 62
1
100
AcDbPoint
 10
358123.6011659444
 20
4146651.1549117407
 30
10.801443099975586
  0
POINT
  5
6E
330
17
100
AcDbEntity
  8
Puntos
 62
1
100
AcDbPoint
 10
358273.6011659444
 20
4146651.1549117407
 30
10.738768577575684
  0
POINT
  5
6F
330
17
100
AcDbEntity
  8
Puntos
 62
1
100
AcDbPoint
 10
358423.6011659444
 20
4146651.1549117407
 30
9.978431701660156
  0
POINT
  5
70
330
17
100
AcDbEntity
  8
Puntos
 62
1
100
AcDbPoint
 10
358573.6011659444
 20
4146651.1549117407
 30
9.925376892089844
  0
POINT
  5
71
330
17
100
AcDbEntity
  8
Puntos
 62
1
100
AcDbPoint
 10
358723.6011659444
 20
4146651.1549117407
 30
9.954446792602539
  0
POINT
  5
72
330
17
100
AcDbEntity
  8
Puntos
 62
1
100
AcDbPoint
 10
358873.6011659444
 20
4146651.1549117407
 30
9.999934196472168
  0
POINT
  5
73
330
17
100
AcDbEntity
  8
Puntos
 62
1
100
AcDbPoint
 10
359023.6011659444
 20
4146651.1549117407
 30
11.065141677856445
  0
POINT
  5
74
330
17
100
AcDbEntity
  8
Puntos
 62
1
100
AcDbPoint
 10
359173.6011659444
 20
4146651.1549117407
 30
12.271834373474121
  0
POINT
  5
75
330
17
100
AcDbEntity
  8
Puntos
 62
1
100
AcDbPoint
 10
359323.6011659444
 20
4146651.1549117407
 30
16.589696884155273
  0
POINT
  5
76
330
17
100
AcDbEntity
  8
Puntos
 62
1
100
AcDbPoint
 10
359473.6011659444
 20
4146651.1549117407
 30
20.463211059570312
  0
POINT
  5
77
330
17
100
AcDbEntity
  8
Puntos
 62
1
100
AcDbPoint
 10
359773.6011659444
 20
4146651.1549117407
 30
29.99272346496582
  0
POINT
  5
78
330
17
100
AcDbEntity
  8
Puntos
 62
1
100
AcDbPoint
 10
359923.6011659444
 20
4146651.1549117407
 30
29.99788475036621
  0
POINT
  5
79
330
17
100
AcDbEntity
  8
Puntos
 62
1
100
AcDbPoint
 10
360073.6011659444
 20
4146651.1549117407
 30
31.5078125
  0
POINT
  5
7A
330
17
100
AcDbEntity
  8
Puntos
 62
1
100
AcDbPoint
 10
360223.6011659444
 20
4146651.1549117407
 30
32.502769470214844
  0
POINT
  5
7B
330
17
100
AcDbEntity
  8
Puntos
 62
1
100
AcDbPoint
 10
360373.6011659444
 20
4146651.1549117407
 30
32.45145797729492
  0
POINT
  5
7C
330
17
100
AcDbEntity
  8
Puntos
 62
1
100
AcDbPoint
 10
360523.6011659444
 20
4146651.1549117407
 30
32.49888610839844
  0
POINT
  5
7D
330
17
100
AcDbEntity
  8
Puntos
 62
1
100
AcDbPoint
 10
360673.6011659444
 20
4146651.1549117407
 30
32.5
  0
POINT
  5
7E
330
17
100
AcDbEntity
  8
Puntos
 62
1
100
AcDbPoint
 10
357823.6011659444
 20
4146801.1549117407
 30
10.099045753479004
  0
POINT
  5
7F
330
17
100
AcDbEntity
  8
Puntos
 62
1
100
AcDbPoint
 10
357973.6011659444
 20
4146801.1549117407
 30
10.06135082244873
  0
POINT
  5
80
330
17
100
AcDbEntity
  8
Puntos
 62
1
100
AcDbPoint
 10
358123.6011659444
 20
4146801.1549117407
 30
11.305312156677246
  0
POINT
  5
81
330
17
100
AcDbEntity
  8
Puntos
 62
1
100
AcDbPoint
 10
358273.6011659444
 20
4146801.1549117407
 30
12.303656578063965
  0
POINT
  5
82
330
17
100
AcDbEntity
  8
Puntos
 62
1
100
AcDbPoint
 10
358423.6011659444
 20
4146801.1549117407
 30
10.998442649841309
  0
POINT
  5
83
330
17
100
AcDbEntity
  8
Puntos
 62
1
100
AcDbPoint
 10
358573.6011659444
 20
4146801.1549117407
 30
9.97868537902832
  0
POINT
  5
84
330
17
100
AcDbEntity
  8
Puntos
 62
1
100
AcDbPoint
 10
358723.6011659444
 20
4146801.1549117407
 30
9.975934982299805
  0
POINT
  5
85
330
17
100
AcDbEntity
  8
Puntos
 62
1
100
AcDbPoint
 10
358873.6011659444
 20
4146801.1549117407
 30
10.643218994140625
  0
POINT
  5
86
330
17
100
AcDbEntity
  8
Puntos
 62
1
100
AcDbPoint
 10
359023.6011659444
 20
4146801.1549117407
 30
11.874344825744629
  0
POINT
  5
87
330
17
100
AcDbEntity
  8
Puntos
 62
1
100
AcDbPoint
 10
359173.6011659444
 20
4146801.1549117407
 30
13.712013244628906
  0
POINT
  5
88
330
17
100
AcDbEntity
  8
Puntos
 62
1
100
AcDbPoint
 10
359323.6011659444
 20
4146801.1549117407
 30
18.52947998046875
  0
POINT
  5
89
330
17
100
AcDbEntity
  8
Puntos
 62
1
100
AcDbPoint
 10
359473.6011659444
 20
4146801.1549117407
 30
23.969158172607422
  0
POINT
  5
8A
330
17
100
AcDbEntity
  8
Puntos
 62
1
100
AcDbPoint
 10
359623.6011659444
 20
4146801.1549117407
 30
29.259578704833984
  0
POINT
  5
8B
330
17
100
AcDbEntity
  8
Puntos
 62
1
100
AcDbPoint
 10
359773.6011659444
 20
4146801.1549117407
 30
29.99955940246582
  0
POINT
  5
8C
330
17
100
AcDbEntity
  8
Puntos
 62
1
100
AcDbPoint
 10
359923.6011659444
 20
4146801.1549117407
 30
29.99803924560547
  0
POINT
  5
8D
330
17
100
AcDbEntity
  8
Puntos
 62
1
100
AcDbPoint
 10
360073.6011659444
 20
4146801.1549117407
 30
31.05809211730957
  0
POINT
  5
8E
330
17
100
AcDbEntity
  8
Puntos
 62
1
100
AcDbPoint
 10
360223.6011659444
 20
4146801.1549117407
 30
31.72637367248535
  0
POINT
  5
8F
330
17
100
AcDbEntity
  8
Puntos
 62
1
100
AcDbPoint
 10
360373.6011659444
 20
4146801.1549117407
 30
29.99905014038086
  0
POINT
  5
90
330
17
100
AcDbEntity
  8
Puntos
 62
1
100
AcDbPoint
 10
360523.6011659444
 20
4146801.1549117407
 30
30.010692596435547
  0
POINT
  5
91
330
17
100
AcDbEntity
  8
Puntos
 62
1
100
AcDbPoint
 10
360673.6011659444
 20
4146801.1549117407
 30
31.033628463745117
  0
POINT
  5
92
330
17
100
AcDbEntity
  8
Puntos
 62
1
100
AcDbPoint
 10
360823.6011659444
 20
4146801.1549117407
 30
32.499900817871094
  0
POINT
  5
93
330
17
100
AcDbEntity
  8
Puntos
 62
1
100
AcDbPoint
 10
357823.6011659444
 20
4146951.1549117407
 30
11.442605018615723
  0
POINT
  5
94
330
17
100
AcDbEntity
  8
Puntos
 62
1
100
AcDbPoint
 10
357973.6011659444
 20
4146951.1549117407
 30
10.110307693481445
  0
POINT
  5
95
330
17
100
AcDbEntity
  8
Puntos
 62
1
100
AcDbPoint
 10
358273.6011659444
 20
4146951.1549117407
 30
12.451301574707031
  0
POINT
  5
96
330
17
100
AcDbEntity
  8
Puntos
 62
1
100
AcDbPoint
 10
358423.6011659444
 20
4146951.1549117407
 30
11.104342460632324
  0
POINT
  5
97
330
17
100
AcDbEntity
  8
Puntos
 62
1
100
AcDbPoint
 10
358573.6011659444
 20
4146951.1549117407
 30
9.994857788085938
  0
POINT
  5
98
330
17
100
AcDbEntity
  8
Puntos
 62
1
100
AcDbPoint
 10
358723.6011659444
 20
4146951.1549117407
 30
9.996758460998535
  0
POINT
  5
99
330
17
100
AcDbEntity
  8
Puntos
 62
1
100
AcDbPoint
 10
358873.6011659444
 20
4146951.1549117407
 30
11.439497947692871
  0
POINT
  5
9A
330
17
100
AcDbEntity
  8
Puntos
 62
1
100
AcDbPoint
 10
359023.6011659444
 20
4146951.1549117407
 30
12.740042686462402
  0
POINT
  5
9B
330
17
100
AcDbEntity
  8
Puntos
 62
1
100
AcDbPoint
 10
359173.6011659444
 20
4146951.1549117407
 30
16.253875732421875
  0
POINT
  5
9C
330
17
100
AcDbEntity
  8
Puntos
 62
1
100
AcDbPoint
 10
359323.6011659444
 20
4146951.1549117407
 30
19.60521697998047
  0
POINT
  5
9D
330
17
100
AcDbEntity
  8
Puntos
 62
1
100
AcDbPoint
 10
359473.6011659444
 20
4146951.1549117407
 30
24.999135971069336
  0
POINT
  5
9E
330
17
100
AcDbEntity
  8
Puntos
 62
1
100
AcDbPoint
 10
359623.6011659444
 20
4146951.1549117407
 30
27.5
  0
POINT
  5
9F
330
17
100
AcDbEntity
  8
Puntos
 62
1
100
AcDbPoint
 10
359773.6011659444
 20
4146951.1549117407
 30
30.0
  0
POINT
  5
A0
330
17
100
AcDbEntity
  8
Puntos
 62
1
100
AcDbPoint
 10
359923.6011659444
 20
4146951.1549117407
 30
30.000080108642578
  0
POINT
  5
A1
330
17
100
AcDbEntity
  8
Puntos
 62
1
100
AcDbPoint
 10
360073.6011659444
 20
4146951.1549117407
 30
30.009511947631836
  0
POINT
  5
A2
330
17
100
AcDbEntity
  8
Puntos
 62
1
100
AcDbPoint
 10
360223.6011659444
 20
4146951.1549117407
 30
30.004581451416016
  0
POINT
  5
A3
330
17
100
AcDbEntity
  8
Puntos
 62
1
100
AcDbPoint
 10
360973.6011659444
 20
4146951.1549117407
 30
32.4998664855957
  0
POINT
  5
A4
330
17
100
AcDbEntity
  8
Puntos
 62
1
100
AcDbPoint
 10
357823.6011659444
 20
4147101.1549117407
 30
12.50238037109375
  0
POINT
  5
A5
330
17
100
AcDbEntity
  8
Puntos
 62
1
100
AcDbPoint
 10
357973.6011659444
 20
4147101.1549117407
 30
12.027379989624023
  0
POINT
  5
A6
330
17
100
AcDbEntity
  8
Puntos
 62
1
100
AcDbPoint
 10
358123.6011659444
 20
4147101.1549117407
 30
12.495099067687988
  0
POINT
  5
A7
330
17
100
AcDbEntity
  8
Puntos
 62
1
100
AcDbPoint
 10
358273.6011659444
 20
4147101.1549117407
 30
11.819514274597168
  0
POINT
  5
A8
330
17
100
AcDbEntity
  8
Puntos
 62
1
100
AcDbPoint
 10
358423.6011659444
 20
4147101.1549117407
 30
10.835803985595703
  0
POINT
  5
A9
330
17
100
AcDbEntity
  8
Puntos
 62
1
100
AcDbPoint
 10
358573.6011659444
 20
4147101.1549117407
 30
10.813187599182129
  0
POINT
  5
AA
330
17
100
AcDbEntity
  8
Puntos
 62
1
100
AcDbPoint
 10
358723.6011659444
 20
4147101.1549117407
 30
11.147132873535156
  0
POINT
  5
AB
330
17
100
AcDbEntity
  8
Puntos
 62
1
100
AcDbPoint
 10
358873.6011659444
 20
4147101.1549117407
 30
12.532265663146973
  0
POINT
  5
AC
330
17
100
AcDbEntity
  8
Puntos
 62
1
100
AcDbPoint
 10
359023.6011659444
 20
4147101.1549117407
 30
14.265437126159668
  0
POINT
  5
AD
330
17
100
AcDbEntity
  8
Puntos
 62
1
100
AcDbPoint
 10
359173.6011659444
 20
4147101.1549117407
 30
18.454336166381836
  0
POINT
  5
AE
330
17
100
AcDbEntity
  8
Puntos
 62
1
100
AcDbPoint
 10
359323.6011659444
 20
4147101.1549117407
 30
22.52322006225586
  0
POINT
  5
AF
330
17
100
AcDbEntity
  8
Puntos
 62
1
100
AcDbPoint
 10
359473.6011659444
 20
4147101.1549117407
 30
22.504779815673828
  0
POINT
  5
B0
330
17
100
AcDbEntity
  8
Puntos
 62
1
100
AcDbPoint
 10
359773.6011659444
 20
4147101.1549117407
 30
29.999494552612305
  0
POINT
  5
B1
330
17
100
AcDbEntity
  8
Puntos
 62
1
100
AcDbPoint
 10
359923.6011659444
 20
4147101.1549117407
 30
29.770545959472656
  0
POINT
  5
B2
330
17
100
AcDbEntity
  8
Puntos
 62
1
100
AcDbPoint
 10
360073.6011659444
 20
4147101.1549117407
 30
29.78164291381836
  0
POINT
  5
B3
330
17
100
AcDbEntity
  8
Puntos
 62
1
100
AcDbPoint
 10
360823.6011659444
 20
4147101.1549117407
 30
30.00814437866211
  0
POINT
  5
B4
330
17
100
AcDbEntity
  8
Puntos
 62
1
100
AcDbPoint
 10
360973.6011659444
 20
4147101.1549117407
 30
31.360090255737305
  0
POINT
  5
B5
330
17
100
AcDbEntity
  8
Puntos
 62
1
100
AcDbPoint
 10
357823.6011659444
 20
4147251.1549117407
 30
12.505751609802246
  0
POINT
  5
B6
330
17
100
AcDbEntity
  8
Puntos
 62
1
100
AcDbPoint
 10
357973.6011659444
 20
4147251.1549117407
 30
12.502604484558105
  0
POINT
  5
B7
330
17
100
AcDbEntity
  8
Puntos
 62
1
100
AcDbPoint
 10
358123.6011659444
 20
4147251.1549117407
 30
12.499056816101074
  0
POINT
  5
B8
330
17
100
AcDbEntity
  8
Puntos
 62
1
100
AcDbPoint
 10
358273.6011659444
 20
4147251.1549117407
 30
11.856898307800293
  0
POINT
  5
B9
330
17
100
AcDbEntity
  8
Puntos
 62
1
100
AcDbPoint
 10
358423.6011659444
 20
4147251.1549117407
 30
11.498432159423828
  0
POINT
  5
BA
330
17
100
AcDbEntity
  8
Puntos
 62
1
100
AcDbPoint
 10
358573.6011659444
 20
4147251.1549117407
 30
11.979618072509766
  0
POINT
  5
BB
330
17
100
AcDbEntity
  8
Puntos
 62
1
100
AcDbPoint
 10
358723.6011659444
 20
4147251.1549117407
 30
12.499979972839355
  0
POINT
  5
BC
330
17
100
AcDbEntity
  8
Puntos
 62
1
100
AcDbPoint
 10
358873.6011659444
 20
4147251.1549117407
 30
13.472219467163086
  0
POINT
  5
BD
330
17
100
AcDbEntity
  8
Puntos
 62
1
100
AcDbPoint
 10
359023.6011659444
 20
4147251.1549117407
 30
16.67060661315918
  0
POINT
  5
BE
330
17
100
AcDbEntity
  8
Puntos
 62
1
100
AcDbPoint
 10
359173.6011659444
 20
4147251.1549117407
 30
19.72014808654785
  0
POINT
  5
BF
330
17
100
AcDbEntity
  8
Puntos
 62
1
100
AcDbPoint
 10
359323.6011659444
 20
4147251.1549117407
 30
25.8452091217041
  0
POINT
  5
C0
330
17
100
AcDbEntity
  8
Puntos
 62
1
100
AcDbPoint
 10
359473.6011659444
 20
4147251.1549117407
 30
25.74802589416504
  0
POINT
  5
C1
330
17
100
AcDbEntity
  8
Puntos
 62
1
100
AcDbPoint
 10
359623.6011659444
 20
4147251.1549117407
 30
27.997507095336914
  0
POINT
  5
C2
330
17
100
AcDbEntity
  8
Puntos
 62
1
100
AcDbPoint
 10
359773.6011659444
 20
4147251.1549117407
 30
28.862119674682617
  0
POINT
  5
C3
330
17
100
AcDbEntity
  8
Puntos
 62
1
100
AcDbPoint
 10
359923.6011659444
 20
4147251.1549117407
 30
28.070009231567383
  0
POINT
  5
C4
330
17
100
AcDbEntity
  8
Puntos
 62
1
100
AcDbPoint
 10
360823.6011659444
 20
4147251.1549117407
 30
29.52276611328125
  0
POINT
  5
C5
330
17
100
AcDbEntity
  8
Puntos
 62
1
100
AcDbPoint
 10
360973.6011659444
 20
4147251.1549117407
 30
30.87915802001953
  0
POINT
  5
C6
330
17
100
AcDbEntity
  8
Puntos
 62
1
100
AcDbPoint
 10
357823.6011659444
 20
4147401.1549117407
 30
12.499606132507324
  0
POINT
  5
C7
330
17
100
AcDbEntity
  8
Puntos
 62
1
100
AcDbPoint
 10
357973.6011659444
 20
4147401.1549117407
 30
12.810297012329102
  0
POINT
  5
C8
330
17
100
AcDbEntity
  8
Puntos
 62
1
100
AcDbPoint
 10
358123.6011659444
 20
4147401.1549117407
 30
12.500003814697266
  0
POINT
  5
C9
330
17
100
AcDbEntity
  8
Puntos
 62
1
100
AcDbPoint
 10
358273.6011659444
 20
4147401.1549117407
 30
12.42093276977539
  0
POINT
  5
CA
330
17
100
AcDbEntity
  8
Puntos
 62
1
100
AcDbPoint
 10
358423.6011659444
 20
4147401.1549117407
 30
12.459308624267578
  0
POINT
  5
CB
330
17
100
AcDbEntity
  8
Puntos
 62
1
100
AcDbPoint
 10
358573.6011659444
 20
4147401.1549117407
 30
12.454011917114258
  0
POINT
  5
CC
330
17
100
AcDbEntity
  8
Puntos
 62
1
100
AcDbPoint
 10
358723.6011659444
 20
4147401.1549117407
 30
12.495036125183105
  0
POINT
  5
CD
330
17
100
AcDbEntity
  8
Puntos
 62
1
100
AcDbPoint
 10
358873.6011659444
 20
4147401.1549117407
 30
14.374320030212402
  0
POINT
  5
CE
330
17
100
AcDbEntity
  8
Puntos
 62
1
100
AcDbPoint
 10
359023.6011659444
 20
4147401.1549117407
 30
18.07093048095703
  0
POINT
  5
CF
330
17
100
AcDbEntity
  8
Puntos
 62
1
100
AcDbPoint
 10
359173.6011659444
 20
4147401.1549117407
 30
25.63804817199707
  0
POINT
  5
D0
330
17
100
AcDbEntity
  8
Puntos
 62
1
100
AcDbPoint
 10
359323.6011659444
 20
4147401.1549117407
 30
27.49948501586914
  0
POINT
  5
D1
330
17
100
AcDbEntity
  8
Puntos
 62
1
100
AcDbPoint
 10
359473.6011659444
 20
4147401.1549117407
 30
27.500003814697266
  0
POINT
  5
D2
330
17
100
AcDbEntity
  8
Puntos
 62
1
100
AcDbPoint
 10
359623.6011659444
 20
4147401.1549117407
 30
27.503196716308594
  0
POINT
  5
D3
330
17
100
AcDbEntity
  8
Puntos
 62
1
100
AcDbPoint
 10
359773.6011659444
 20
4147401.1549117407
 30
27.504552841186523
  0
POINT
  5
D4
330
17
100
AcDbEntity
  8
Puntos
 62
1
100
AcDbPoint
 10
359923.6011659444
 20
4147401.1549117407
 30
27.50115394592285
  0
POINT
  5
D5
330
17
100
AcDbEntity
  8
Puntos
 62
1
100
AcDbPoint
 10
360823.6011659444
 20
4147401.1549117407
 30
31.369609832763672
  0
POINT
  5
D6
330
17
100
AcDbEntity
  8
Puntos
 62
1
100
AcDbPoint
 10
360973.6011659444
 20
4147401.1549117407
 30
31.34222412109375
  0
POINT
  5
D7
330
17
100
AcDbEntity
  8
Puntos
 62
1
100
AcDbPoint
 10
357823.6011659444
 20
4147551.1549117407
 30
13.30160903930664
  0
POINT
  5
D8
330
17
100
AcDbEntity
  8
Puntos
 62
1
100
AcDbPoint
 10
357973.6011659444
 20
4147551.1549117407
 30
14.026959419250488
  0
POINT
  5
D9
330
17
100
AcDbEntity
  8
Puntos
 62
1
100
AcDbPoint
 10
358123.6011659444
 20
4147551.1549117407
 30
12.500005722045898
  0
POINT
  5
DA
330
17
100
AcDbEntity
  8
Puntos
 62
1
100
AcDbPoint
 10
358273.6011659444
 20
4147551.1549117407
 30
12.500021934509277
  0
POINT
  5
DB
330
17
100
AcDbEntity
  8
Puntos
 62
1
100
AcDbPoint
 10
358423.6011659444
 20
4147551.1549117407
 30
12.500005722045898
  0
POINT
  5
DC
330
17
100
AcDbEntity
  8
Puntos
 62
1
100
AcDbPoint
 10
358573.6011659444
 20
4147551.1549117407
 30
12.492098808288574
  0
POINT
  5
DD
330
17
100
AcDbEntity
  8
Puntos
 62
1
100
AcDbPoint
 10
358723.6011659444
 20
4147551.1549117407
 30
12.500155448913574
  0
POINT
  5
DE
330
17
100
AcDbEntity
  8
Puntos
 62
1
100
AcDbPoint
 10
358873.6011659444
 20
4147551.1549117407
 30
14.002985954284668
  0
POINT
  5
DF
330
17
100
AcDbEntity
  8
Puntos
 62
1
100
AcDbPoint
 10
359023.6011659444
 20
4147551.1549117407
 30
18.469160079956055
  0
POINT
  5
E0
330
17
100
AcDbEntity
  8
Puntos
 62
1
100
AcDbPoint
 10
359173.6011659444
 20
4147551.1549117407
 30
27.500080108642578
  0
POINT
  5
E1
330
17
100
AcDbEntity
  8
Puntos
 62
1
100
AcDbPoint
 10
359323.6011659444
 20
4147551.1549117407
 30
27.501201629638672
  0
POINT
  5
E2
330
17
100
AcDbEntity
  8
Puntos
 62
1
100
AcDbPoint
 10
359473.6011659444
 20
4147551.1549117407
 30
27.791404724121094
  0
POINT
  5
E3
330
17
100
AcDbEntity
  8
Puntos
 62
1
100
AcDbPoint
 10
359623.6011659444
 20
4147551.1549117407
 30
27.507856369018555
  0
POINT
  5
E4
330
17
100
AcDbEntity
  8
Puntos
 62
1
100
AcDbPoint
 10
359773.6011659444
 20
4147551.1549117407
 30
27.500764846801758
  0
POINT
  5
E5
330
17
100
AcDbEntity
  8
Puntos
 62
1
100
AcDbPoint
 10
360823.6011659444
 20
4147551.1549117407
 30
32.50086212158203
  0
POINT
  5
E6
330
17
100
AcDbEntity
  8
Puntos
 62
1
100
AcDbPoint
 10
360973.6011659444
 20
4147551.1549117407
 30
33.97719192504883
  0
POINT
  5
E7
330
17
100
AcDbEntity
  8
Puntos
 62
1
100
AcDbPoint
 10
357823.6011659444
 20
4147701.1549117407
 30
17.500194549560547
  0
POINT
  5
E8
330
17
100
AcDbEntity
  8
Puntos
 62
1
100
AcDbPoint
 10
357973.6011659444
 20
4147701.1549117407
 30
15.090801239013672
  0
POINT
  5
E9
330
17
100
AcDbEntity
  8
Puntos
 62
1
100
AcDbPoint
 10
358123.6011659444
 20
4147701.1549117407
 30
13.190342903137207
  0
POINT
  5
EA
330
17
100
AcDbEntity
  8
Puntos
 62
1
100
AcDbPoint
 10
358273.6011659444
 20
4147701.1549117407
 30
12.500006675720215
  0
POINT
  5
EB
330
17
100
AcDbEntity
  8
Puntos
 62
1
100
AcDbPoint
 10
358423.6011659444
 20
4147701.1549117407
 30
12.50001335144043
  0
POINT
  5
EC
330
17
100
AcDbEntity
  8
Puntos
 62
1
100
AcDbPoint
 10
358573.6011659444
 20
4147701.1549117407
 30
12.50000286102295
  0
POINT
  5
ED
330
17
100
AcDbEntity
  8
Puntos
 62
1
100
AcDbPoint
 10
358723.6011659444
 20
4147701.1549117407
 30
12.4996976852417
  0
POINT
  5
EE
330
17
100
AcDbEntity
  8
Puntos
 62
1
100
AcDbPoint
 10
358873.6011659444
 20
4147701.1549117407
 30
14.210326194763184
  0
POINT
  5
EF
330
17
100
AcDbEntity
  8
Puntos
 62
1
100
AcDbPoint
 10
359023.6011659444
 20
4147701.1549117407
 30
19.432147979736328
  0
POINT
  5
F0
330
17
100
AcDbEntity
  8
Puntos
 62
1
100
AcDbPoint
 10
359173.6011659444
 20
4147701.1549117407
 30
26.96381187438965
  0
POINT
  5
F1
330
17
100
AcDbEntity
  8
Puntos
 62
1
100
AcDbPoint
 10
359323.6011659444
 20
4147701.1549117407
 30
27.483367919921875
  0
POINT
  5
F2
330
17
100
AcDbEntity
  8
Puntos
 62
1
100
AcDbPoint
 10
359473.6011659444
 20
4147701.1549117407
 30
24.166257858276367
  0
POINT
  5
F3
330
17
100
AcDbEntity
  8
Puntos
 62
1
100
AcDbPoint
 10
359923.6011659444
 20
4147701.1549117407
 30
27.499916076660156
  0
POINT
  5
F4
330
17
100
AcDbEntity
  8
Puntos
 62
1
100
AcDbPoint
 10
360073.6011659444
 20
4147701.1549117407
 30
27.454143524169922
  0
POINT
  5
F5
330
17
100
AcDbEntity
  8
Puntos
 62
1
100
AcDbPoint
 10
360223.6011659444
 20
4147701.1549117407
 30
27.541824340820312
  0
POINT
  5
F6
330
17
100
AcDbEntity
  8
Puntos
 62
1
100
AcDbPoint
 10
360373.6011659444
 20
4147701.1549117407
 30
27.948041915893555
  0
POINT
  5
F7
330
17
100
AcDbEntity
  8
Puntos
 62
1
100
AcDbPoint
 10
360673.6011659444
 20
4147701.1549117407
 30
28.791786193847656
  0
POINT
  5
F8
330
17
100
AcDbEntity
  8
Puntos
 62
1
100
AcDbPoint
 10
360823.6011659444
 20
4147701.1549117407
 30
30.212215423583984
  0
POINT
  5
F9
330
17
100
AcDbEntity
  8
Puntos
 62
1
100
AcDbPoint
 10
357823.6011659444
 20
4147851.1549117407
 30
18.237476348876953
  0
POINT
  5
FA
330
17
100
AcDbEntity
  8
Puntos
 62
1
100
AcDbPoint
 10
358123.6011659444
 20
4147851.1549117407
 30
16.504377365112305
  0
POINT
  5
FB
330
17
100
AcDbEntity
  8
Puntos
 62
1
100
AcDbPoint
 10
358273.6011659444
 20
4147851.1549117407
 30
14.712170600891113
  0
POINT
  5
FC
330
17
100
AcDbEntity
  8
Puntos
 62
1
100
AcDbPoint
 10
358423.6011659444
 20
4147851.1549117407
 30
12.499994277954102
  0
POINT
  5
FD
330
17
100
AcDbEntity
  8
Puntos
 62
1
100
AcDbPoint
 10
358573.6011659444
 20
4147851.1549117407
 30
12.50000286102295
  0
POINT
  5
FE
330
17
100
AcDbEntity
  8
Puntos
 62
1
100
AcDbPoint
 10
358723.6011659444
 20
4147851.1549117407
 30
12.5
  0
POINT
  5
FF
330
17
100
AcDbEntity
  8
Puntos
 62
1
100
AcDbPoint
 10
358873.6011659444
 20
4147851.1549117407
 30
15.523492813110352
  0
POINT
  5
100
330
17
100
AcDbEntity
  8
Puntos
 62
1
100
AcDbPoint
 10
359023.6011659444
 20
4147851.1549117407
 30
19.438154220581055
  0
POINT
  5
101
330
17
100
AcDbEntity
  8
Puntos
 62
1
100
AcDbPoint
 10
359173.6011659444
 20
4147851.1549117407
 30
21.109928131103516
  0
POINT
  5
102
330
17
100
AcDbEntity
  8
Puntos
 62
1
100
AcDbPoint
 10
359323.6011659444
 20
4147851.1549117407
 30
21.435766220092773
  0
POINT
  5
103
330
17
100
AcDbEntity
  8
Puntos
 62
1
100
AcDbPoint
 10
359773.6011659444
 20
4147851.1549117407
 30
25.062288284301758
  0
POINT
  5
104
330
17
100
AcDbEntity
  8
Puntos
 62
1
100
AcDbPoint
 10
359923.6011659444
 20
4147851.1549117407
 30
33.35378646850586
  0
POINT
  5
105
330
17
100
AcDbEntity
  8
Puntos
 62
1
100
AcDbPoint
 10
360073.6011659444
 20
4147851.1549117407
 30
37.11690902709961
  0
POINT
  5
106
330
17
100
AcDbEntity
  8
Puntos
 62
1
100
AcDbPoint
 10
360223.6011659444
 20
4147851.1549117407
 30
30.92436408996582
  0
POINT
  5
107
330
17
100
AcDbEntity
  8
Puntos
 62
1
100
AcDbPoint
 10
360373.6011659444
 20
4147851.1549117407
 30
29.999082565307617
  0
POINT
  5
108
330
17
100
AcDbEntity
  8
Puntos
 62
1
100
AcDbPoint
 10
360523.6011659444
 20
4147851.1549117407
 30
30.002784729003906
  0
POINT
  5
109
330
17
100
AcDbEntity
  8
Puntos
 62
1
100
AcDbPoint
 10
360673.6011659444
 20
4147851.1549117407
 30
31.2430477142334
  0
POINT
  5
10A
330
17
100
AcDbEntity
  8
Puntos
 62
1
100
AcDbPoint
 10
360823.6011659444
 20
4147851.1549117407
 30
31.35099983215332
  0
POINT
  5
10B
330
17
100
AcDbEntity
  8
Puntos
 62
1
100
AcDbPoint
 10
360973.6011659444
 20
4147851.1549117407
 30
32.49540328979492
  0
POINT
  5
10C
330
17
100
AcDbEntity
  8
Puntos
 62
1
100
AcDbPoint
 10
357823.6011659444
 20
4148001.1549117407
 30
19.034496307373047
  0
POINT
  5
10D
330
17
100
AcDbEntity
  8
Puntos
 62
1
100
AcDbPoint
 10
358273.6011659444
 20
4148001.1549117407
 30
17.502933502197266
  0
POINT
  5
10E
330
17
100
AcDbEntity
  8
Puntos
 62
1
100
AcDbPoint
 10
358423.6011659444
 20
4148001.1549117407
 30
15.009076118469238
  0
POINT
  5
10F
330
17
100
AcDbEntity
  8
Puntos
 62
1
100
AcDbPoint
 10
358573.6011659444
 20
4148001.1549117407
 30
12.499547004699707
  0
POINT
  5
110
330
17
100
AcDbEntity
  8
Puntos
 62
1
100
AcDbPoint
 10
358873.6011659444
 20
4148001.1549117407
 30
13.514206886291504
  0
POINT
  5
111
330
17
100
AcDbEntity
  8
Puntos
 62
1
100
AcDbPoint
 10
359023.6011659444
 20
4148001.1549117407
 30
18.140159606933594
  0
POINT
  5
112
330
17
100
AcDbEntity
  8
Puntos
 62
1
100
AcDbPoint
 10
359173.6011659444
 20
4148001.1549117407
 30
20.00000762939453
  0
POINT
  5
113
330
17
100
AcDbEntity
  8
Puntos
 62
1
100
AcDbPoint
 10
359773.6011659444
 20
4148001.1549117407
 30
22.97547149658203
  0
POINT
  5
114
330
17
100
AcDbEntity
  8
Puntos
 62
1
100
AcDbPoint
 10
359923.6011659444
 20
4148001.1549117407
 30
27.749717712402344
  0
POINT
  5
115
330
17
100
AcDbEntity
  8
Puntos
 62
1
100
AcDbPoint
 10
360223.6011659444
 20
4148001.1549117407
 30
36.2635498046875
  0
POINT
  5
116
330
17
100
AcDbEntity
  8
Puntos
 62
1
100
AcDbPoint
 10
360373.6011659444
 20
4148001.1549117407
 30
31.96872329711914
  0
POINT
  5
117
330
17
100
AcDbEntity
  8
Puntos
 62
1
100
AcDbPoint
 10
360523.6011659444
 20
4148001.1549117407
 30
29.999998092651367
  0
POINT
  5
118
330
17
100
AcDbEntity
  8
Puntos
 62
1
100
AcDbPoint
 10
360673.6011659444
 20
4148001.1549117407
 30
31.66398811340332
  0
POINT
  5
119
330
17
100
AcDbEntity
  8
Puntos
 62
1
100
AcDbPoint
 10
360823.6011659444
 20
4148001.1549117407
 30
33.380775451660156
  0
POINT
  5
11A
330
17
100
AcDbEntity
  8
Puntos
 62
1
100
AcDbPoint
 10
360973.6011659444
 20
4148001.1549117407
 30
32.49829864501953
  0
POINT
  5
11B
330
17
100
AcDbEntity
  8
Puntos
 62
1
100
AcDbPoint
 10
357823.6011659444
 20
4148151.1549117407
 30
19.842666625976562
  0
POINT
  5
11C
330
17
100
AcDbEntity
  8
Puntos
 62
1
100
AcDbPoint
 10
357973.6011659444
 20
4148151.1549117407
 30
19.809494018554688
  0
POINT
  5
11D
330
17
100
AcDbEntity
  8
Puntos
 62
1
100
AcDbPoint
 10
358123.6011659444
 20
4148151.1549117407
 30
19.085031509399414
  0
POINT
  5
11E
330
17
100
AcDbEntity
  8
Puntos
 62
1
100
AcDbPoint
 10
358573.6011659444
 20
4148151.1549117407
 30
14.923626899719238
  0
POINT
  5
11F
330
17
100
AcDbEntity
  8
Puntos
 62
1
100
AcDbPoint
 10
358723.6011659444
 20
4148151.1549117407
 30
11.225109100341797
  0
POINT
  5
120
330
17
100
AcDbEntity
  8
Puntos
 62
1
100
AcDbPoint
 10
358873.6011659444
 20
4148151.1549117407
 30
12.385015487670898
  0
POINT
  5
121
330
17
100
AcDbEntity
  8
Puntos
 62
1
100
AcDbPoint
 10
359023.6011659444
 20
4148151.1549117407
 30
14.964816093444824
  0
POINT
  5
122
330
17
100
AcDbEntity
  8
Puntos
 62
1
100
AcDbPoint
 10
359773.6011659444
 20
4148151.1549117407
 30
20.94908905029297
  0
POINT
  5
123
330
17
100
AcDbEntity
  8
Puntos
 62
1
100
AcDbPoint
 10
359923.6011659444
 20
4148151.1549117407
 30
22.705049514770508
  0
POINT
  5
124
330
17
100
AcDbEntity
  8
Puntos
 62
1
100
AcDbPoint
 10
360073.6011659444
 20
4148151.1549117407
 30
27.580524444580078
  0
POINT
  5
125
330
17
100
AcDbEntity
  8
Puntos
 62
1
100
AcDbPoint
 10
360223.6011659444
 20
4148151.1549117407
 30
37.5
  0
POINT
  5
126
330
17
100
AcDbEntity
  8
Puntos
 62
1
100
AcDbPoint
 10
360373.6011659444
 20
4148151.1549117407
 30
33.88900375366211
  0
POINT
  5
127
330
17
100
AcDbEntity
  8
Puntos
 62
1
100
AcDbPoint
 10
360523.6011659444
 20
4148151.1549117407
 30
30.0
  0
POINT
  5
128
330
17
100
AcDbEntity
  8
Puntos
 62
1
100
AcDbPoint
 10
360673.6011659444
 20
4148151.1549117407
 30
30.0
  0
POINT
  5
129
330
17
100
AcDbEntity
  8
Puntos
 62
1
100
AcDbPoint
 10
360823.6011659444
 20
4148151.1549117407
 30
32.377620697021484
  0
POINT
  5
12A
330
17
100
AcDbEntity
  8
Puntos
 62
1
100
AcDbPoint
 10
360973.6011659444
 20
4148151.1549117407
 30
35.0
  0
POINT
  5
12B
330
17
100
AcDbEntity
  8
Puntos
 62
1
100
AcDbPoint
 10
357823.6011659444
 20
4148301.1549117407
 30
20.0
  0
POINT
  5
12C
330
17
100
AcDbEntity
  8
Puntos
 62
1
100
AcDbPoint
 10
357973.6011659444
 20
4148301.1549117407
 30
20.000001907348633
  0
POINT
  5
12D
330
17
100
AcDbEntity
  8
Puntos
 62
1
100
AcDbPoint
 10
358123.6011659444
 20
4148301.1549117407
 30
20.0
  0
POINT
  5
12E
330
17
100
AcDbEntity
  8
Puntos
 62
1
100
AcDbPoint
 10
358273.6011659444
 20
4148301.1549117407
 30
20.0
  0
POINT
  5
12F
330
17
100
AcDbEntity
  8
Puntos
 62
1
100
AcDbPoint
 10
358423.6011659444
 20
4148301.1549117407
 30
20.0
  0
POINT
  5
130
330
17
100
AcDbEntity
  8
Puntos
 62
1
100
AcDbPoint
 10
358573.6011659444
 20
4148301.1549117407
 30
17.720745086669922
  0
POINT
  5
131
330
17
100
AcDbEntity
  8
Puntos
 62
1
100
AcDbPoint
 10
358723.6011659444
 20
4148301.1549117407
 30
13.847907066345215
  0
POINT
  5
132
330
17
100
AcDbEntity
  8
Puntos
 62
1
100
AcDbPoint
 10
359023.6011659444
 20
4148301.1549117407
 30
14.48951244354248
  0
POINT
  5
133
330
17
100
AcDbEntity
  8
Puntos
 62
1
100
AcDbPoint
 10
359173.6011659444
 20
4148301.1549117407
 30
17.500164031982422
  0
POINT
  5
134
330
17
100
AcDbEntity
  8
Puntos
 62
1
100
AcDbPoint
 10
359923.6011659444
 20
4148301.1549117407
 30
19.130277633666992
  0
POINT
  5
135
330
17
100
AcDbEntity
  8
Puntos
 62
1
100
AcDbPoint
 10
360073.6011659444
 20
4148301.1549117407
 30
20.59124183654785
  0
POINT
  5
136
330
17
100
AcDbEntity
  8
Puntos
 62
1
100
AcDbPoint
 10
360223.6011659444
 20
4148301.1549117407
 30
25.0200252532959
  0
POINT
  5
137
330
17
100
AcDbEntity
  8
Puntos
 62
1
100
AcDbPoint
 10
360373.6011659444
 20
4148301.1549117407
 30
31.112192153930664
  0
POINT
  5
138
330
17
100
AcDbEntity
  8
Puntos
 62
1
100
AcDbPoint
 10
360523.6011659444
 20
4148301.1549117407
 30
28.649751663208008
  0
POINT
  5
139
330
17
100
AcDbEntity
  8
Puntos
 62
1
100
AcDbPoint
 10
360673.6011659444
 20
4148301.1549117407
 30
28.281009674072266
  0
POINT
  5
13A
330
17
100
AcDbEntity
  8
Puntos
 62
1
100
AcDbPoint
 10
360823.6011659444
 20
4148301.1549117407
 30
28.18181800842285
  0
POINT
  5
13B
330
17
100
AcDbEntity
  8
Puntos
 62
1
100
AcDbPoint
 10
360973.6011659444
 20
4148301.1549117407
 30
29.433664321899414
  0
POINT
  5
13C
330
17
100
AcDbEntity
  8
Puntos
 62
1
100
AcDbPoint
 10
357823.6011659444
 20
4148451.1549117407
 30
20.712779998779297
  0
POINT
  5
13D
330
17
100
AcDbEntity
  8
Puntos
 62
1
100
AcDbPoint
 10
357973.6011659444
 20
4148451.1549117407
 30
20.0000057220459
  0
POINT
  5
13E
330
17
100
AcDbEntity
  8
Puntos
 62
1
100
AcDbPoint
 10
358123.6011659444
 20
4148451.1549117407
 30
20.0
  0
POINT
  5
13F
330
17
100
AcDbEntity
  8
Puntos
 62
1
100
AcDbPoint
 10
358273.6011659444
 20
4148451.1549117407
 30
20.0
  0
POINT
  5
140
330
17
100
AcDbEntity
  8
Puntos
 62
1
100
AcDbPoint
 10
358423.6011659444
 20
4148451.1549117407
 30
20.0
  0
POINT
  5
141
330
17
100
AcDbEntity
  8
Puntos
 62
1
100
AcDbPoint
 10
358573.6011659444
 20
4148451.1549117407
 30
19.99066734313965
  0
POINT
  5
142
330
17
100
AcDbEntity
  8
Puntos
 62
1
100
AcDbPoint
 10
358723.6011659444
 20
4148451.1549117407
 30
16.499452590942383
  0
POINT
  5
143
330
17
100
AcDbEntity
  8
Puntos
 62
1
100
AcDbPoint
 10
358873.6011659444
 20
4148451.1549117407
 30
10.002358436584473
  0
POINT
  5
144
330
17
100
AcDbEntity
  8
Puntos
 62
1
100
AcDbPoint
 10
359023.6011659444
 20
4148451.1549117407
 30
11.973057746887207
  0
POINT
  5
145
330
17
100
AcDbEntity
  8
Puntos
 62
1
100
AcDbPoint
 10
360223.6011659444
 20
4148451.1549117407
 30
19.613422393798828
  0
POINT
  5
146
330
17
100
AcDbEntity
  8
Puntos
 62
1
100
AcDbPoint
 10
360373.6011659444
 20
4148451.1549117407
 30
21.575532913208008
  0
POINT
  5
147
330
17
100
AcDbEntity
  8
Puntos
 62
1
100
AcDbPoint
 10
360673.6011659444
 20
4148451.1549117407
 30
27.5
  0
POINT
  5
148
330
17
100
AcDbEntity
  8
Puntos
 62
1
100
AcDbPoint
 10
360823.6011659444
 20
4148451.1549117407
 30
27.49987030029297
  0
POINT
  5
149
330
17
100
AcDbEntity
  8
Puntos
 62
1
100
AcDbPoint
 10
360973.6011659444
 20
4148451.1549117407
 30
27.38597869873047
  0
POINT
  5
14A
330
17
100
AcDbEntity
  8
Puntos
 62
1
100
AcDbPoint
 10
357823.6011659444
 20
4148601.1549117407
 30
21.704374313354492
  0
POINT
  5
14B
330
17
100
AcDbEntity
  8
Puntos
 62
1
100
AcDbPoint
 10
357973.6011659444
 20
4148601.1549117407
 30
20.0
  0
POINT
  5
14C
330
17
100
AcDbEntity
  8
Puntos
 62
1
100
AcDbPoint
 10
358123.6011659444
 20
4148601.1549117407
 30
20.0
  0
POINT
  5
14D
330
17
100
AcDbEntity
  8
Puntos
 62
1
100
AcDbPoint
 10
358273.6011659444
 20
4148601.1549117407
 30
20.0
  0
POINT
  5
14E
330
17
100
AcDbEntity
  8
Puntos
 62
1
100
AcDbPoint
 10
358423.6011659444
 20
4148601.1549117407
 30
20.0
  0
POINT
  5
14F
330
17
100
AcDbEntity
  8
Puntos
 62
1
100
AcDbPoint
 10
358573.6011659444
 20
4148601.1549117407
 30
19.973709106445312
  0
POINT
  5
150
330
17
100
AcDbEntity
  8
Puntos
 62
1
100
AcDbPoint
 10
358723.6011659444
 20
4148601.1549117407
 30
20.0
  0
POINT
  5
151
330
17
100
AcDbEntity
  8
Puntos
 62
1
100
AcDbPoint
 10
358873.6011659444
 20
4148601.1549117407
 30
13.129185676574707
  0
POINT
  5
152
330
17
100
AcDbEntity
  8
Puntos
 62
1
100
AcDbPoint
 10
359623.6011659444
 20
4148601.1549117407
 30
18.879167556762695
  0
POINT
  5
153
330
17
100
AcDbEntity
  8
Puntos
 62
1
100
AcDbPoint
 10
359773.6011659444
 20
4148601.1549117407
 30
19.979141235351562
  0
POINT
  5
154
330
17
100
AcDbEntity
  8
Puntos
 62
1
100
AcDbPoint
 10
359923.6011659444
 20
4148601.1549117407
 30
19.675029754638672
  0
POINT
  5
155
330
17
100
AcDbEntity
  8
Puntos
 62
1
100
AcDbPoint
 10
360373.6011659444
 20
4148601.1549117407
 30
19.999996185302734
  0
POINT
  5
156
330
17
100
AcDbEntity
  8
Puntos
 62
1
100
AcDbPoint
 10
360523.6011659444
 20
4148601.1549117407
 30
21.776779174804688
  0
POINT
  5
157
330
17
100
AcDbEntity
  8
Puntos
 62
1
100
AcDbPoint
 10
360673.6011659444
 20
4148601.1549117407
 30
23.394567489624023
  0
POINT
  5
158
330
17
100
AcDbEntity
  8
Puntos
 62
1
100
AcDbPoint
 10
360823.6011659444
 20
4148601.1549117407
 30
24.904897689819336
  0
POINT
  5
159
330
17
100
AcDbEntity
  8
Puntos
 62
1
100
AcDbPoint
 10
360973.6011659444
 20
4148601.1549117407
 30
25.046709060668945
  0
POINT
  5
15A
330
17
100
AcDbEntity
  8
Puntos
 62
1
100
AcDbPoint
 10
357823.6011659444
 20
4148751.1549117407
 30
22.789663314819336
  0
POINT
  5
15B
330
17
100
AcDbEntity
  8
Puntos
 62
1
100
AcDbPoint
 10
357973.6011659444
 20
4148751.1549117407
 30
20.607812881469727
  0
POINT
  5
15C
330
17
100
AcDbEntity
  8
Puntos
 62
1
100
AcDbPoint
 10
358123.6011659444
 20
4148751.1549117407
 30
19.999961853027344
  0
POINT
  5
15D
330
17
100
AcDbEntity
  8
Puntos
 62
1
100
AcDbPoint
 10
358273.6011659444
 20
4148751.1549117407
 30
19.999916076660156
  0
POINT
  5
15E
330
17
100
AcDbEntity
  8
Puntos
 62
1
100
AcDbPoint
 10
358423.6011659444
 20
4148751.1549117407
 30
20.0
  0
POINT
  5
15F
330
17
100
AcDbEntity
  8
Puntos
 62
1
100
AcDbPoint
 10
358573.6011659444
 20
4148751.1549117407
 30
19.995285034179688
  0
POINT
  5
160
330
17
100
AcDbEntity
  8
Puntos
 62
1
100
AcDbPoint
 10
358723.6011659444
 20
4148751.1549117407
 30
19.180023193359375
  0
POINT
  5
161
330
17
100
AcDbEntity
  8
Puntos
 62
1
100
AcDbPoint
 10
358873.6011659444
 20
4148751.1549117407
 30
17.566356658935547
  0
POINT
  5
162
330
17
100
AcDbEntity
  8
Puntos
 62
1
100
AcDbPoint
 10
359023.6011659444
 20
4148751.1549117407
 30
10.104822158813477
  0
POINT
  5
163
330
17
100
AcDbEntity
  8
Puntos
 62
1
100
AcDbPoint
 10
359323.6011659444
 20
4148751.1549117407
 30
16.0950870513916
  0
POINT
  5
164
330
17
100
AcDbEntity
  8
Puntos
 62
1
100
AcDbPoint
 10
359473.6011659444
 20
4148751.1549117407
 30
19.146881103515625
  0
POINT
  5
165
330
17
100
AcDbEntity
  8
Puntos
 62
1
100
AcDbPoint
 10
359623.6011659444
 20
4148751.1549117407
 30
19.756811141967773
  0
POINT
  5
166
330
17
100
AcDbEntity
  8
Puntos
 62
1
100
AcDbPoint
 10
359773.6011659444
 20
4148751.1549117407
 30
22.52560806274414
  0
POINT
  5
167
330
17
100
AcDbEntity
  8
Puntos
 62
1
100
AcDbPoint
 10
359923.6011659444
 20
4148751.1549117407
 30
21.997604370117188
  0
POINT
  5
168
330
17
100
AcDbEntity
  8
Puntos
 62
1
100
AcDbPoint
 10
360073.6011659444
 20
4148751.1549117407
 30
19.999967575073242
  0
POINT
  5
169
330
17
100
AcDbEntity
  8
Puntos
 62
1
100
AcDbPoint
 10
360223.6011659444
 20
4148751.1549117407
 30
19.999988555908203
  0
POINT
  5
16A
330
17
100
AcDbEntity
  8
Puntos
 62
1
100
AcDbPoint
 10
360373.6011659444
 20
4148751.1549117407
 30
19.999996185302734
  0
POINT
  5
16B
330
17
100
AcDbEntity
  8
Puntos
 62
1
100
AcDbPoint
 10
360523.6011659444
 20
4148751.1549117407
 30
21.054838180541992
  0
POINT
  5
16C
330
17
100
AcDbEntity
  8
Puntos
 62
1
100
AcDbPoint
 10
360673.6011659444
 20
4148751.1549117407
 30
22.524747848510742
  0
POINT
  5
16D
330
17
100
AcDbEntity
  8
Puntos
 62
1
100
AcDbPoint
 10
360823.6011659444
 20
4148751.1549117407
 30
23.584728240966797
  0
POINT
  5
16E
330
17
100
AcDbEntity
  8
Puntos
 62
1
100
AcDbPoint
 10
360973.6011659444
 20
4148751.1549117407
 30
24.226821899414062
  0
POINT
  5
16F
330
17
100
AcDbEntity
  8
Puntos
 62
1
100
AcDbPoint
 10
357823.6011659444
 20
4148901.1549117407
 30
24.99848747253418
  0
POINT
  5
170
330
17
100
AcDbEntity
  8
Puntos
 62
1
100
AcDbPoint
 10
358123.6011659444
 20
4148901.1549117407
 30
20.20696449279785
  0
POINT
  5
171
330
17
100
AcDbEntity
  8
Puntos
 62
1
100
AcDbPoint
 10
358273.6011659444
 20
4148901.1549117407
 30
19.9992618560791
  0
POINT
  5
172
330
17
100
AcDbEntity
  8
Puntos
 62
1
100
AcDbPoint
 10
358423.6011659444
 20
4148901.1549117407
 30
18.86684226989746
  0
POINT
  5
173
330
17
100
AcDbEntity
  8
Puntos
 62
1
100
AcDbPoint
 10
358573.6011659444
 20
4148901.1549117407
 30
20.0
  0
POINT
  5
174
330
17
100
AcDbEntity
  8
Puntos
 62
1
100
AcDbPoint
 10
358723.6011659444
 20
4148901.1549117407
 30
17.5
  0
POINT
  5
175
330
17
100
AcDbEntity
  8
Puntos
 62
1
100
AcDbPoint
 10
358873.6011659444
 20
4148901.1549117407
 30
17.530181884765625
  0
POINT
  5
176
330
17
100
AcDbEntity
  8
Puntos
 62
1
100
AcDbPoint
 10
359023.6011659444
 20
4148901.1549117407
 30
11.821964263916016
  0
POINT
  5
177
330
17
100
AcDbEntity
  8
Puntos
 62
1
100
AcDbPoint
 10
359173.6011659444
 20
4148901.1549117407
 30
10.184244155883789
  0
POINT
  5
178
330
17
100
AcDbEntity
  8
Puntos
 62
1
100
AcDbPoint
 10
359323.6011659444
 20
4148901.1549117407
 30
33.713294982910156
  0
POINT
  5
179
330
17
100
AcDbEntity
  8
Puntos
 62
1
100
AcDbPoint
 10
359623.6011659444
 20
4148901.1549117407
 30
24.95077896118164
  0
POINT
  5
17A
330
17
100
AcDbEntity
  8
Puntos
 62
1
100
AcDbPoint
 10
359773.6011659444
 20
4148901.1549117407
 30
24.995201110839844
  0
POINT
  5
17B
330
17
100
AcDbEntity
  8
Puntos
 62
1
100
AcDbPoint
 10
359923.6011659444
 20
4148901.1549117407
 30
25.0
  0
POINT
  5
17C
330
17
100
AcDbEntity
  8
Puntos
 62
1
100
AcDbPoint
 10
360073.6011659444
 20
4148901.1549117407
 30
22.090059280395508
  0
POINT
  5
17D
330
17
100
AcDbEntity
  8
Puntos
 62
1
100
AcDbPoint
 10
360223.6011659444
 20
4148901.1549117407
 30
20.51803970336914
  0
POINT
  5
17E
330
17
100
AcDbEntity
  8
Puntos
 62
1
100
AcDbPoint
 10
360373.6011659444
 20
4148901.1549117407
 30
20.0
  0
POINT
  5
17F
330
17
100
AcDbEntity
  8
Puntos
 62
1
100
AcDbPoint
 10
360523.6011659444
 20
4148901.1549117407
 30
20.0
  0
POINT
  5
180
330
17
100
AcDbEntity
  8
Puntos
 62
1
100
AcDbPoint
 10
360673.6011659444
 20
4148901.1549117407
 30
21.75139617919922
  0
POINT
  5
181
330
17
100
AcDbEntity
  8
Puntos
 62
1
100
AcDbPoint
 10
360823.6011659444
 20
4148901.1549117407
 30
22.91667938232422
  0
POINT
  5
182
330
17
100
AcDbEntity
  8
Puntos
 62
1
100
AcDbPoint
 10
360973.6011659444
 20
4148901.1549117407
 30
24.17472267150879
  0
POINT
  5
183
330
17
100
AcDbEntity
  8
Puntos
 62
1
100
AcDbPoint
 10
357823.6011659444
 20
4149051.1549117407
 30
26.66977882385254
  0
POINT
  5
184
330
17
100
AcDbEntity
  8
Puntos
 62
1
100
AcDbPoint
 10
357973.6011659444
 20
4149051.1549117407
 30
24.2974853515625
  0
POINT
  5
185
330
17
100
AcDbEntity
  8
Puntos
 62
1
100
AcDbPoint
 10
358273.6011659444
 20
4149051.1549117407
 30
20.000743865966797
  0
POINT
  5
186
330
17
100
AcDbEntity
  8
Puntos
 62
1
100
AcDbPoint
 10
358423.6011659444
 20
4149051.1549117407
 30
18.58720588684082
  0
POINT
  5
187
330
17
100
AcDbEntity
  8
Puntos
 62
1
100
AcDbPoint
 10
358723.6011659444
 20
4149051.1549117407
 30
17.5
  0
POINT
  5
188
330
17
100
AcDbEntity
  8
Puntos
 62
1
100
AcDbPoint
 10
358873.6011659444
 20
4149051.1549117407
 30
17.37810516357422
  0
POINT
  5
189
330
17
100
AcDbEntity
  8
Puntos
 62
1
100
AcDbPoint
 10
359023.6011659444
 20
4149051.1549117407
 30
11.388189315795898
  0
POINT
  5
18A
330
17
100
AcDbEntity
  8
Puntos
 62
1
100
AcDbPoint
 10
359323.6011659444
 20
4149051.1549117407
 30
24.367130279541016
  0
POINT
  5
18B
330
17
100
AcDbEntity
  8
Puntos
 62
1
100
AcDbPoint
 10
359473.6011659444
 20
4149051.1549117407
 30
27.324907302856445
  0
POINT
  5
18C
330
17
100
AcDbEntity
  8
Puntos
 62
1
100
AcDbPoint
 10
359623.6011659444
 20
4149051.1549117407
 30
24.999855041503906
  0
POINT
  5
18D
330
17
100
AcDbEntity
  8
Puntos
 62
1
100
AcDbPoint
 10
359773.6011659444
 20
4149051.1549117407
 30
24.930618286132812
  0
POINT
  5
18E
330
17
100
AcDbEntity
  8
Puntos
 62
1
100
AcDbPoint
 10
359923.6011659444
 20
4149051.1549117407
 30
25.0
  0
POINT
  5
18F
330
17
100
AcDbEntity
  8
Puntos
 62
1
100
AcDbPoint
 10
360073.6011659444
 20
4149051.1549117407
 30
23.080148696899414
  0
POINT
  5
190
330
17
100
AcDbEntity
  8
Puntos
 62
1
100
AcDbPoint
 10
360223.6011659444
 20
4149051.1549117407
 30
22.258460998535156
  0
POINT
  5
191
330
17
100
AcDbEntity
  8
Puntos
 62
1
100
AcDbPoint
 10
360373.6011659444
 20
4149051.1549117407
 30
20.214479446411133
  0
POINT
  5
192
330
17
100
AcDbEntity
  8
Puntos
 62
1
100
AcDbPoint
 10
360523.6011659444
 20
4149051.1549117407
 30
20.87591552734375
  0
POINT
  5
193
330
17
100
AcDbEntity
  8
Puntos
 62
1
100
AcDbPoint
 10
360673.6011659444
 20
4149051.1549117407
 30
27.31529998779297
  0
POINT
  5
194
330
17
100
AcDbEntity
  8
Puntos
 62
1
100
AcDbPoint
 10
360823.6011659444
 20
4149051.1549117407
 30
24.500947952270508
  0
POINT
  5
195
330
17
100
AcDbEntity
  8
Puntos
 62
1
100
AcDbPoint
 10
360973.6011659444
 20
4149051.1549117407
 30
24.81360626220703
  0
POINT
  5
196
330
17
100
AcDbEntity
  8
Puntos
 62
1
100
AcDbPoint
 10
357823.6011659444
 20
4149201.1549117407
 30
28.6343936920166
  0
POINT
  5
197
330
17
100
AcDbEntity
  8
Puntos
 62
1
100
AcDbPoint
 10
357973.6011659444
 20
4149201.1549117407
 30
25.539512634277344
  0
POINT
  5
198
330
17
100
AcDbEntity
  8
Puntos
 62
1
100
AcDbPoint
 10
358573.6011659444
 20
4149201.1549117407
 30
17.5
  0
POINT
  5
199
330
17
100
AcDbEntity
  8
Puntos
 62
1
100
AcDbPoint
 10
358723.6011659444
 20
4149201.1549117407
 30
26.590225219726562
  0
POINT
  5
19A
330
17
100
AcDbEntity
  8
Puntos
 62
1
100
AcDbPoint
 10
358873.6011659444
 20
4149201.1549117407
 30
17.38854217529297
  0
POINT
  5
19B
330
17
100
AcDbEntity
  8
Puntos
 62
1
100
AcDbPoint
 10
359023.6011659444
 20
4149201.1549117407
 30
13.475482940673828
  0
POINT
  5
19C
330
17
100
AcDbEntity
  8
Puntos
 62
1
100
AcDbPoint
 10
359323.6011659444
 20
4149201.1549117407
 30
15.942736625671387
  0
POINT
  5
19D
330
17
100
AcDbEntity
  8
Puntos
 62
1
100
AcDbPoint
 10
359473.6011659444
 20
4149201.1549117407
 30
21.487773895263672
  0
POINT
  5
19E
330
17
100
AcDbEntity
  8
Puntos
 62
1
100
AcDbPoint
 10
359623.6011659444
 20
4149201.1549117407
 30
25.000858306884766
  0
POINT
  5
19F
330
17
100
AcDbEntity
  8
Puntos
 62
1
100
AcDbPoint
 10
359773.6011659444
 20
4149201.1549117407
 30
24.252391815185547
  0
POINT
  5
1A0
330
17
100
AcDbEntity
  8
Puntos
 62
1
100
AcDbPoint
 10
359923.6011659444
 20
4149201.1549117407
 30
22.499996185302734
  0
POINT
  5
1A1
330
17
100
AcDbEntity
  8
Puntos
 62
1
100
AcDbPoint
 10
360073.6011659444
 20
4149201.1549117407
 30
22.499996185302734
  0
POINT
  5
1A2
330
17
100
AcDbEntity
  8
Puntos
 62
1
100
AcDbPoint
 10
360223.6011659444
 20
4149201.1549117407
 30
22.519285202026367
  0
POINT
  5
1A3
330
17
100
AcDbEntity
  8
Puntos
 62
1
100
AcDbPoint
 10
360373.6011659444
 20
4149201.1549117407
 30
22.499996185302734
  0
POINT
  5
1A4
330
17
100
AcDbEntity
  8
Puntos
 62
1
100
AcDbPoint
 10
360523.6011659444
 20
4149201.1549117407
 30
22.5
  0
POINT
  5
1A5
330
17
100
AcDbEntity
  8
Puntos
 62
1
100
AcDbPoint
 10
360673.6011659444
 20
4149201.1549117407
 30
29.02780532836914
  0
POINT
  5
1A6
330
17
100
AcDbEntity
  8
Puntos
 62
1
100
AcDbPoint
 10
360823.6011659444
 20
4149201.1549117407
 30
25.426578521728516
  0
POINT
  5
1A7
330
17
100
AcDbEntity
  8
Puntos
 62
1
100
AcDbPoint
 10
360973.6011659444
 20
4149201.1549117407
 30
25.00343132019043
  0
POINT
  5
1A8
330
17
100
AcDbEntity
  8
Puntos
 62
1
100
AcDbPoint
 10
357823.6011659444
 20
4149351.1549117407
 30
29.881717681884766
  0
POINT
  5
1A9
330
17
100
AcDbEntity
  8
Puntos
 62
1
100
AcDbPoint
 10
357973.6011659444
 20
4149351.1549117407
 30
27.582355499267578
  0
POINT
  5
1AA
330
17
100
AcDbEntity
  8
Puntos
 62
1
100
AcDbPoint
 10
358123.6011659444
 20
4149351.1549117407
 30
24.572528839111328
  0
POINT
  5
1AB
330
17
100
AcDbEntity
  8
Puntos
 62
1
100
AcDbPoint
 10
358273.6011659444
 20
4149351.1549117407
 30
20.639995574951172
  0
POINT
  5
1AC
330
17
100
AcDbEntity
  8
Puntos
 62
1
100
AcDbPoint
 10
358423.6011659444
 20
4149351.1549117407
 30
18.683332443237305
  0
POINT
  5
1AD
330
17
100
AcDbEntity
  8
Puntos
 62
1
100
AcDbPoint
 10
358573.6011659444
 20
4149351.1549117407
 30
17.5
  0
POINT
  5
1AE
330
17
100
AcDbEntity
  8
Puntos
 62
1
100
AcDbPoint
 10
358723.6011659444
 20
4149351.1549117407
 30
17.5
  0
POINT
  5
1AF
330
17
100
AcDbEntity
  8
Puntos
 62
1
100
AcDbPoint
 10
358873.6011659444
 20
4149351.1549117407
 30
35.492496490478516
  0
POINT
  5
1B0
330
17
100
AcDbEntity
  8
Puntos
 62
1
100
AcDbPoint
 10
359023.6011659444
 20
4149351.1549117407
 30
18.820476531982422
  0
POINT
  5
1B1
330
17
100
AcDbEntity
  8
Puntos
 62
1
100
AcDbPoint
 10
359323.6011659444
 20
4149351.1549117407
 30
11.491230964660645
  0
POINT
  5
1B2
330
17
100
AcDbEntity
  8
Puntos
 62
1
100
AcDbPoint
 10
359473.6011659444
 20
4149351.1549117407
 30
16.945154190063477
  0
POINT
  5
1B3
330
17
100
AcDbEntity
  8
Puntos
 62
1
100
AcDbPoint
 10
359623.6011659444
 20
4149351.1549117407
 30
19.94393539428711
  0
POINT
  5
1B4
330
17
100
AcDbEntity
  8
Puntos
 62
1
100
AcDbPoint
 10
359773.6011659444
 20
4149351.1549117407
 30
22.569477081298828
  0
POINT
  5
1B5
330
17
100
AcDbEntity
  8
Puntos
 62
1
100
AcDbPoint
 10
359923.6011659444
 20
4149351.1549117407
 30
22.499990463256836
  0
POINT
  5
1B6
330
17
100
AcDbEntity
  8
Puntos
 62
1
100
AcDbPoint
 10
360073.6011659444
 20
4149351.1549117407
 30
22.499862670898438
  0
POINT
  5
1B7
330
17
100
AcDbEntity
  8
Puntos
 62
1
100
AcDbPoint
 10
360223.6011659444
 20
4149351.1549117407
 30
22.499948501586914
  0
POINT
  5
1B8
330
17
100
AcDbEntity
  8
Puntos
 62
1
100
AcDbPoint
 10
360373.6011659444
 20
4149351.1549117407
 30
22.499977111816406
  0
POINT
  5
1B9
330
17
100
AcDbEntity
  8
Puntos
 62
1
100
AcDbPoint
 10
360523.6011659444
 20
4149351.1549117407
 30
22.4999942779541
  0
POINT
  5
1BA
330
17
100
AcDbEntity
  8
Puntos
 62
1
100
AcDbPoint
 10
360673.6011659444
 20
4149351.1549117407
 30
22.887378692626953
  0
POINT
  5
1BB
330
17
100
AcDbEntity
  8
Puntos
 62
1
100
AcDbPoint
 10
360823.6011659444
 20
4149351.1549117407
 30
24.998403549194336
  0
POINT
  5
1BC
330
17
100
AcDbEntity
  8
Puntos
 62
1
100
AcDbPoint
 10
360973.6011659444
 20
4149351.1549117407
 30
24.99833869934082
  0
POINT
  5
1BD
330
17
100
AcDbEntity
  8
Puntos
 62
1
100
AcDbPoint
 10
357823.6011659444
 20
4149501.1549117407
 30
32.496952056884766
  0
POINT
  5
1BE
330
17
100
AcDbEntity
  8
Puntos
 62
1
100
AcDbPoint
 10
357973.6011659444
 20
4149501.1549117407
 30
29.695926666259766
  0
POINT
  5
1BF
330
17
100
AcDbEntity
  8
Puntos
 62
1
100
AcDbPoint
 10
358123.6011659444
 20
4149501.1549117407
 30
26.233871459960938
  0
POINT
  5
1C0
330
17
100
AcDbEntity
  8
Puntos
 62
1
100
AcDbPoint
 10
358273.6011659444
 20
4149501.1549117407
 30
22.7303466796875
  0
POINT
  5
1C1
330
17
100
AcDbEntity
  8
Puntos
 62
1
100
AcDbPoint
 10
358423.6011659444
 20
4149501.1549117407
 30
19.853748321533203
  0
POINT
  5
1C2
330
17
100
AcDbEntity
  8
Puntos
 62
1
100
AcDbPoint
 10
358573.6011659444
 20
4149501.1549117407
 30
17.99475860595703
  0
POINT
  5
1C3
330
17
100
AcDbEntity
  8
Puntos
 62
1
100
AcDbPoint
 10
358723.6011659444
 20
4149501.1549117407
 30
17.5
  0
POINT
  5
1C4
330
17
100
AcDbEntity
  8
Puntos
 62
1
100
AcDbPoint
 10
358873.6011659444
 20
4149501.1549117407
 30
17.5
  0
POINT
  5
1C5
330
17
100
AcDbEntity
  8
Puntos
 62
1
100
AcDbPoint
 10
359023.6011659444
 20
4149501.1549117407
 30
30.64107894897461
  0
POINT
  5
1C6
330
17
100
AcDbEntity
  8
Puntos
 62
1
100
AcDbPoint
 10
359173.6011659444
 20
4149501.1549117407
 30
21.632875442504883
  0
POINT
  5
1C7
330
17
100
AcDbEntity
  8
Puntos
 62
1
100
AcDbPoint
 10
359473.6011659444
 20
4149501.1549117407
 30
11.813775062561035
  0
POINT
  5
1C8
330
17
100
AcDbEntity
  8
Puntos
 62
1
100
AcDbPoint
 10
359623.6011659444
 20
4149501.1549117407
 30
16.054580688476562
  0
POINT
  5
1C9
330
17
100
AcDbEntity
  8
Puntos
 62
1
100
AcDbPoint
 10
359773.6011659444
 20
4149501.1549117407
 30
18.76595687866211
  0
POINT
  5
1CA
330
17
100
AcDbEntity
  8
Puntos
 62
1
100
AcDbPoint
 10
359923.6011659444
 20
4149501.1549117407
 30
21.683258056640625
  0
POINT
  5
1CB
330
17
100
AcDbEntity
  8
Puntos
 62
1
100
AcDbPoint
 10
360073.6011659444
 20
4149501.1549117407
 30
22.49997901916504
  0
POINT
  5
1CC
330
17
100
AcDbEntity
  8
Puntos
 62
1
100
AcDbPoint
 10
360223.6011659444
 20
4149501.1549117407
 30
22.49997901916504
  0
POINT
  5
1CD
330
17
100
AcDbEntity
  8
Puntos
 62
1
100
AcDbPoint
 10
360373.6011659444
 20
4149501.1549117407
 30
22.499988555908203
  0
POINT
  5
1CE
330
17
100
AcDbEntity
  8
Puntos
 62
1
100
AcDbPoint
 10
360523.6011659444
 20
4149501.1549117407
 30
22.499990463256836
  0
POINT
  5
1CF
330
17
100
AcDbEntity
  8
Puntos
 62
1
100
AcDbPoint
 10
360673.6011659444
 20
4149501.1549117407
 30
22.499996185302734
  0
POINT
  5
1D0
330
17
100
AcDbEntity
  8
Puntos
 62
1
100
AcDbPoint
 10
360823.6011659444
 20
4149501.1549117407
 30
25.000001907348633
  0
POINT
  5
1D1
330
17
100
AcDbEntity
  8
Puntos
 62
1
100
AcDbPoint
 10
360973.6011659444
 20
4149501.1549117407
 30
24.86338233947754
  0
POINT
  5
1D2
330
17
100
AcDbEntity
  8
Puntos
 62
1
100
AcDbPoint
 10
357823.6011659444
 20
4149651.1549117407
 30
35.00065994262695
  0
POINT
  5
1D3
330
17
100
AcDbEntity
  8
Puntos
 62
1
100
AcDbPoint
 10
357973.6011659444
 20
4149651.1549117407
 30
32.621673583984375
  0
POINT
  5
1D4
330
17
100
AcDbEntity
  8
Puntos
 62
1
100
AcDbPoint
 10
358123.6011659444
 20
4149651.1549117407
 30
29.719066619873047
  0
POINT
  5
1D5
330
17
100
AcDbEntity
  8
Puntos
 62
1
100
AcDbPoint
 10
358273.6011659444
 20
4149651.1549117407
 30
25.626060485839844
  0
POINT
  5
1D6
330
17
100
AcDbEntity
  8
Puntos
 62
1
100
AcDbPoint
 10
358423.6011659444
 20
4149651.1549117407
 30
21.777986526489258
  0
POINT
  5
1D7
330
17
100
AcDbEntity
  8
Puntos
 62
1
100
AcDbPoint
 10
358573.6011659444
 20
4149651.1549117407
 30
20.014484405517578
  0
POINT
  5
1D8
330
17
100
AcDbEntity
  8
Puntos
 62
1
100
AcDbPoint
 10
358723.6011659444
 20
4149651.1549117407
 30
19.99751853942871
  0
POINT
  5
1D9
330
17
100
AcDbEntity
  8
Puntos
 62
1
100
AcDbPoint
 10
358873.6011659444
 20
4149651.1549117407
 30
18.401901245117188
  0
POINT
  5
1DA
330
17
100
AcDbEntity
  8
Puntos
 62
1
100
AcDbPoint
 10
359023.6011659444
 20
4149651.1549117407
 30
17.5
  0
POINT
  5
1DB
330
17
100
AcDbEntity
  8
Puntos
 62
1
100
AcDbPoint
 10
359173.6011659444
 20
4149651.1549117407
 30
26.25802230834961
  0
POINT
  5
1DC
330
17
100
AcDbEntity
  8
Puntos
 62
1
100
AcDbPoint
 10
359323.6011659444
 20
4149651.1549117407
 30
23.464021682739258
  0
POINT
  5
1DD
330
17
100
AcDbEntity
  8
Puntos
 62
1
100
AcDbPoint
 10
359623.6011659444
 20
4149651.1549117407
 30
10.0
  0
POINT
  5
1DE
330
17
100
AcDbEntity
  8
Puntos
 62
1
100
AcDbPoint
 10
359773.6011659444
 20
4149651.1549117407
 30
15.899968147277832
  0
POINT
  5
1DF
330
17
100
AcDbEntity
  8
Puntos
 62
1
100
AcDbPoint
 10
360073.6011659444
 20
4149651.1549117407
 30
21.555042266845703
  0
POINT
  5
1E0
330
17
100
AcDbEntity
  8
Puntos
 62
1
100
AcDbPoint
 10
360223.6011659444
 20
4149651.1549117407
 30
22.499998092651367
  0
POINT
  5
1E1
330
17
100
AcDbEntity
  8
Puntos
 62
1
100
AcDbPoint
 10
360373.6011659444
 20
4149651.1549117407
 30
24.16600799560547
  0
POINT
  5
1E2
330
17
100
AcDbEntity
  8
Puntos
 62
1
100
AcDbPoint
 10
360523.6011659444
 20
4149651.1549117407
 30
22.499998092651367
  0
POINT
  5
1E3
330
17
100
AcDbEntity
  8
Puntos
 62
1
100
AcDbPoint
 10
360673.6011659444
 20
4149651.1549117407
 30
22.499996185302734
  0
POINT
  5
1E4
330
17
100
AcDbEntity
  8
Puntos
 62
1
100
AcDbPoint
 10
360823.6011659444
 20
4149651.1549117407
 30
22.5
  0
POINT
  5
1E5
330
17
100
AcDbEntity
  8
Puntos
 62
1
100
AcDbPoint
 10
360973.6011659444
 20
4149651.1549117407
 30
22.504152297973633
  0
POINT
  5
1E6
330
17
100
AcDbEntity
  8
Puntos
 62
1
100
AcDbPoint
 10
357823.6011659444
 20
4149801.1549117407
 30
36.446231842041016
  0
POINT
  5
1E7
330
17
100
AcDbEntity
  8
Puntos
 62
1
100
AcDbPoint
 10
357973.6011659444
 20
4149801.1549117407
 30
36.88159942626953
  0
POINT
  5
1E8
330
17
100
AcDbEntity
  8
Puntos
 62
1
100
AcDbPoint
 10
358123.6011659444
 20
4149801.1549117407
 30
34.309593200683594
  0
POINT
  5
1E9
330
17
100
AcDbEntity
  8
Puntos
 62
1
100
AcDbPoint
 10
358273.6011659444
 20
4149801.1549117407
 30
30.67837142944336
  0
POINT
  5
1EA
330
17
100
AcDbEntity
  8
Puntos
 62
1
100
AcDbPoint
 10
358423.6011659444
 20
4149801.1549117407
 30
26.268699645996094
  0
POINT
  5
1EB
330
17
100
AcDbEntity
  8
Puntos
 62
1
100
AcDbPoint
 10
358573.6011659444
 20
4149801.1549117407
 30
21.700578689575195
  0
POINT
  5
1EC
330
17
100
AcDbEntity
  8
Puntos
 62
1
100
AcDbPoint
 10
358723.6011659444
 20
4149801.1549117407
 30
19.999406814575195
  0
POINT
  5
1ED
330
17
100
AcDbEntity
  8
Puntos
 62
1
100
AcDbPoint
 10
358873.6011659444
 20
4149801.1549117407
 30
19.99994659423828
  0
POINT
  5
1EE
330
17
100
AcDbEntity
  8
Puntos
 62
1
100
AcDbPoint
 10
359023.6011659444
 20
4149801.1549117407
 30
20.99644660949707
  0
POINT
  5
1EF
330
17
100
AcDbEntity
  8
Puntos
 62
1
100
AcDbPoint
 10
359323.6011659444
 20
4149801.1549117407
 30
25.138687133789062
  0
POINT
  5
1F0
330
17
100
AcDbEntity
  8
Puntos
 62
1
100
AcDbPoint
 10
359473.6011659444
 20
4149801.1549117407
 30
21.38649559020996
  0
POINT
  5
1F1
330
17
100
AcDbEntity
  8
Puntos
 62
1
100
AcDbPoint
 10
359773.6011659444
 20
4149801.1549117407
 30
11.22913646697998
  0
POINT
  5
1F2
330
17
100
AcDbEntity
  8
Puntos
 62
1
100
AcDbPoint
 10
359923.6011659444
 20
4149801.1549117407
 30
19.9266300201416
  0
POINT
  5
1F3
330
17
100
AcDbEntity
  8
Puntos
 62
1
100
AcDbPoint
 10
360073.6011659444
 20
4149801.1549117407
 30
17.498132705688477
  0
POINT
  5
1F4
330
17
100
AcDbEntity
  8
Puntos
 62
1
100
AcDbPoint
 10
360223.6011659444
 20
4149801.1549117407
 30
19.339780807495117
  0
POINT
  5
1F5
330
17
100
AcDbEntity
  8
Puntos
 62
1
100
AcDbPoint
 10
360373.6011659444
 20
4149801.1549117407
 30
20.96280860900879
  0
POINT
  5
1F6
330
17
100
AcDbEntity
  8
Puntos
 62
1
100
AcDbPoint
 10
360523.6011659444
 20
4149801.1549117407
 30
26.199373245239258
  0
POINT
  5
1F7
330
17
100
AcDbEntity
  8
Puntos
 62
1
100
AcDbPoint
 10
360673.6011659444
 20
4149801.1549117407
 30
22.5
  0
POINT
  5
1F8
330
17
100
AcDbEntity
  8
Puntos
 62
1
100
AcDbPoint
 10
360823.6011659444
 20
4149801.1549117407
 30
22.499998092651367
  0
POINT
  5
1F9
330
17
100
AcDbEntity
  8
Puntos
 62
1
100
AcDbPoint
 10
360973.6011659444
 20
4149801.1549117407
 30
21.76127052307129
  0
POINT
  5
1FA
330
17
100
AcDbEntity
  8
Puntos
 62
1
100
AcDbPoint
 10
357823.6011659444
 20
4149951.1549117407
 30
37.49774169921875
  0
POINT
  5
1FB
330
17
100
AcDbEntity
  8
Puntos
 62
1
100
AcDbPoint
 10
357973.6011659444
 20
4149951.1549117407
 30
37.4997444152832
  0
POINT
  5
1FC
330
17
100
AcDbEntity
  8
Puntos
 62
1
100
AcDbPoint
 10
358123.6011659444
 20
4149951.1549117407
 30
35.80350875854492
  0
POINT
  5
1FD
330
17
100
AcDbEntity
  8
Puntos
 62
1
100
AcDbPoint
 10
358273.6011659444
 20
4149951.1549117407
 30
33.913761138916016
  0
POINT
  5
1FE
330
17
100
AcDbEntity
  8
Puntos
 62
1
100
AcDbPoint
 10
358423.6011659444
 20
4149951.1549117407
 30
31.206897735595703
  0
POINT
  5
1FF
330
17
100
AcDbEntity
  8
Puntos
 62
1
100
AcDbPoint
 10
358573.6011659444
 20
4149951.1549117407
 30
25.839584350585938
  0
POINT
  5
200
330
17
100
AcDbEntity
  8
Puntos
 62
1
100
AcDbPoint
 10
358723.6011659444
 20
4149951.1549117407
 30
21.8365535736084
  0
POINT
  5
201
330
17
100
AcDbEntity
  8
Puntos
 62
1
100
AcDbPoint
 10
358873.6011659444
 20
4149951.1549117407
 30
19.99993324279785
  0
POINT
  5
202
330
17
100
AcDbEntity
  8
Puntos
 62
1
100
AcDbPoint
 10
359023.6011659444
 20
4149951.1549117407
 30
20.871667861938477
  0
POINT
  5
203
330
17
100
AcDbEntity
  8
Puntos
 62
1
100
AcDbPoint
 10
359173.6011659444
 20
4149951.1549117407
 30
22.72137451171875
  0
POINT
  5
204
330
17
100
AcDbEntity
  8
Puntos
 62
1
100
AcDbPoint
 10
359473.6011659444
 20
4149951.1549117407
 30
22.958398818969727
  0
POINT
  5
205
330
17
100
AcDbEntity
  8
Puntos
 62
1
100
AcDbPoint
 10
359623.6011659444
 20
4149951.1549117407
 30
14.678276062011719
  0
POINT
  5
206
330
17
100
AcDbEntity
  8
Puntos
 62
1
100
AcDbPoint
 10
359923.6011659444
 20
4149951.1549117407
 30
17.176380157470703
  0
POINT
  5
207
330
17
100
AcDbEntity
  8
Puntos
 62
1
100
AcDbPoint
 10
360073.6011659444
 20
4149951.1549117407
 30
20.0
  0
POINT
  5
208
330
17
100
AcDbEntity
  8
Puntos
 62
1
100
AcDbPoint
 10
360223.6011659444
 20
4149951.1549117407
 30
17.499906539916992
  0
POINT
  5
209
330
17
100
AcDbEntity
  8
Puntos
 62
1
100
AcDbPoint
 10
360373.6011659444
 20
4149951.1549117407
 30
17.758298873901367
  0
POINT
  5
20A
330
17
100
AcDbEntity
  8
Puntos
 62
1
100
AcDbPoint
 10
360523.6011659444
 20
4149951.1549117407
 30
18.951047897338867
  0
POINT
  5
20B
330
17
100
AcDbEntity
  8
Puntos
 62
1
100
AcDbPoint
 10
360673.6011659444
 20
4149951.1549117407
 30
22.428194046020508
  0
POINT
  5
20C
330
17
100
AcDbEntity
  8
Puntos
 62
1
100
AcDbPoint
 10
360823.6011659444
 20
4149951.1549117407
 30
22.5
  0
POINT
  5
20D
330
17
100
AcDbEntity
  8
Puntos
 62
1
100
AcDbPoint
 10
360973.6011659444
 20
4149951.1549117407
 30
20.970691680908203
  0
POINT
  5
20E
330
17
100
AcDbEntity
  8
Puntos
 62
1
100
AcDbPoint
 10
357973.6011659444
 20
4150101.1549117407
 30
36.94092559814453
  0
POINT
  5
20F
330
17
100
AcDbEntity
  8
Puntos
 62
1
100
AcDbPoint
 10
358123.6011659444
 20
4150101.1549117407
 30
35.22474670410156
  0
POINT
  5
210
330
17
100
AcDbEntity
  8
Puntos
 62
1
100
AcDbPoint
 10
358273.6011659444
 20
4150101.1549117407
 30
34.22957229614258
  0
POINT
  5
211
330
17
100
AcDbEntity
  8
Puntos
 62
1
100
AcDbPoint
 10
358423.6011659444
 20
4150101.1549117407
 30
32.499996185302734
  0
POINT
  5
212
330
17
100
AcDbEntity
  8
Puntos
 62
1
100
AcDbPoint
 10
358573.6011659444
 20
4150101.1549117407
 30
30.77943229675293
  0
POINT
  5
213
330
17
100
AcDbEntity
  8
Puntos
 62
1
100
AcDbPoint
 10
358723.6011659444
 20
4150101.1549117407
 30
25.23463249206543
  0
POINT
  5
214
330
17
100
AcDbEntity
  8
Puntos
 62
1
100
AcDbPoint
 10
358873.6011659444
 20
4150101.1549117407
 30
23.851802825927734
  0
POINT
  5
215
330
17
100
AcDbEntity
  8
Puntos
 62
1
100
AcDbPoint
 10
359023.6011659444
 20
4150101.1549117407
 30
21.338647842407227
  0
POINT
  5
216
330
17
100
AcDbEntity
  8
Puntos
 62
1
100
AcDbPoint
 10
359173.6011659444
 20
4150101.1549117407
 30
20.19736099243164
  0
POINT
  5
217
330
17
100
AcDbEntity
  8
Puntos
 62
1
100
AcDbPoint
 10
359323.6011659444
 20
4150101.1549117407
 30
22.729793548583984
  0
POINT
  5
218
330
17
100
AcDbEntity
  8
Puntos
 62
1
100
AcDbPoint
 10
359623.6011659444
 20
4150101.1549117407
 30
16.898109436035156
  0
POINT
  5
219
330
17
100
AcDbEntity
  8
Puntos
 62
1
100
AcDbPoint
 10
360073.6011659444
 20
4150101.1549117407
 30
17.499141693115234
  0
POINT
  5
21A
330
17
100
AcDbEntity
  8
Puntos
 62
1
100
AcDbPoint
 10
360223.6011659444
 20
4150101.1549117407
 30
20.0
  0
POINT
  5
21B
330
17
100
AcDbEntity
  8
Puntos
 62
1
100
AcDbPoint
 10
360373.6011659444
 20
4150101.1549117407
 30
17.499990463256836
  0
POINT
  5
21C
330
17
100
AcDbEntity
  8
Puntos
 62
1
100
AcDbPoint
 10
360523.6011659444
 20
4150101.1549117407
 30
17.499996185302734
  0
POINT
  5
21D
330
17
100
AcDbEntity
  8
Puntos
 62
1
100
AcDbPoint
 10
360673.6011659444
 20
4150101.1549117407
 30
16.788625717163086
  0
POINT
  5
21E
330
17
100
AcDbEntity
  8
Puntos
 62
1
100
AcDbPoint
 10
360823.6011659444
 20
4150101.1549117407
 30
18.32172966003418
  0
POINT
  5
21F
330
17
100
AcDbEntity
  8
Puntos
 62
1
100
AcDbPoint
 10
360973.6011659444
 20
4150101.1549117407
 30
20.180112838745117
  0
ENDSEC
  0
SECTION
  2
OBJECTS
  0
DICTIONARY
  5
A
330
0
100
AcDbDictionary
280
0
281
1
  3
ACAD_COLOR
350
B
  3
ACAD_GROUP
350
C
  3
ACAD_LAYOUT
350
D
  3
ACAD_MATERIAL
350
E
  3
ACAD_MLEADERSTYLE
350
F
  3
ACAD_MLINESTYLE
350
10
  3
ACAD_PLOTSETTINGS
350
11
  3
ACAD_PLOTSTYLENAME
350
12
  3
ACAD_SCALELIST
350
14
  3
ACAD_TABLESTYLE
350
15
  3
ACAD_VISUALSTYLE
350
16
  3
EZDXF_META
350
2D
  0
DICTIONARY
  5
B
330
A
100
AcDbDictionary
280
0
281
1
  0
DICTIONARY
  5
C
330
A
100
AcDbDictionary
280
0
281
1
  0
DICTIONARY
  5
D
330
A
100
AcDbDictionary
280
0
281
1
  3
Model
350
1A
  3
Layout1
350
1E
  0
DICTIONARY
  5
E
330
A
100
AcDbDictionary
280
0
281
1
  3
ByBlock
350
1F
  3
ByLayer
350
20
  3
Global
350
21
  0
DICTIONARY
  5
F
330
A
100
AcDbDictionary
280
0
281
1
  3
Standard
350
2C
  0
DICTIONARY
  5
10
330
A
100
AcDbDictionary
280
0
281
1
  3
Standard
350
22
  0
DICTIONARY
  5
11
330
A
100
AcDbDictionary
280
0
281
1
  0
ACDBDICTIONARYWDFLT
  5
12
330
A
100
AcDbDictionary
280
0
281
1
  3
Normal
350
13
100
AcDbDictionaryWithDefault
340
13
  0
ACDBPLACEHOLDER
  5
13
330
12
  0
DICTIONARY
  5
14
330
A
100
AcDbDictionary
280
0
281
1
  0
DICTIONARY
  5
15
330
A
100
AcDbDictionary
280
0
281
1
  0
DICTIONARY
  5
16
330
A
100
AcDbDictionary
280
0
281
1
  0
LAYOUT
  5
1A
330
D
100
AcDbPlotSettings
  1

  2
Adobe PDF
  4
A3
  6

 40
7.5
 41
20.0
 42
7.5
 43
20.0
 44
420.0
 45
297.0
 46
0.0
 47
0.0
 48
0.0
 49
0.0
140
0.0
141
0.0
142
1.0
143
1.0
 70
1024
 72
1
 73
0
 74
5
  7

 75
16
 76
0
 77
2
 78
300
147
1.0
148
0.0
149
0.0
100
AcDbLayout
  1
Model
 70
1
 71
0
 10
0.0
 20
0.0
 11
420.0
 21
297.0
 12
0.0
 22
0.0
 32
0.0
 14
1e+20
 24
1e+20
 34
1e+20
 15
-1e+20
 25
-1e+20
 35
-1e+20
146
0.0
 13
0.0
 23
0.0
 33
0.0
 16
1.0
 26
0.0
 36
0.0
 17
0.0
 27
1.0
 37
0.0
 76
1
330
17
  0
LAYOUT
  5
1E
330
D
100
AcDbPlotSettings
  1

  2
Adobe PDF
  4
A3
  6

 40
7.5
 41
20.0
 42
7.5
 43
20.0
 44
420.0
 45
297.0
 46
0.0
 47
0.0
 48
0.0
 49
0.0
140
0.0
141
0.0
142
1.0
143
1.0
 70
0
 72
1
 73
0
 74
5
  7

 75
16
 76
0
 77
2
 78
300
147
1.0
148
0.0
149
0.0
100
AcDbLayout
  1
Layout1
 70
1
 71
1
 10
0.0
 20
0.0
 11
420.0
 21
297.0
 12
0.0
 22
0.0
 32
0.0
 14
1e+20
 24
1e+20
 34
1e+20
 15
-1e+20
 25
-1e+20
 35
-1e+20
146
0.0
 13
0.0
 23
0.0
 33
0.0
 16
1.0
 26
0.0
 36
0.0
 17
0.0
 27
1.0
 37
0.0
 76
1
330
1B
  0
MATERIAL
  5
1F
102
{ACAD_REACTORS
330
E
102
}
330
E
100
AcDbMaterial
  1
ByBlock
  2

 70
0
 40
1.0
 71
1
 41
1.0
 91
-1023410177
 42
1.0
 72
1
  3

 73
1
 74
1
 75
1
 44
0.5
 73
0
 45
1.0
 46
1.0
 77
1
  4

 78
1
 79
1
170
1
 48
1.0
171
1
  6

172
1
173
1
174
1
140
1.0
141
1.0
175
1
  7

176
1
177
1
178
1
143
1.0
179
1
  8

270
1
271
1
272
1
145
1.0
146
1.0
273
1
  9

274
1
275
1
276
1
 42
1.0
 72
1
  3

 73
1
 74
1
 75
1
 94
63
  0
MATERIAL
  5
20
102
{ACAD_REACTORS
330
E
102
}
330
E
100
AcDbMaterial
  1
ByLayer
  2

 70
0
 40
1.0
 71
1
 41
1.0
 91
-1023410177
 42
1.0
 72
1
  3

 73
1
 74
1
 75
1
 44
0.5
 73
0
 45
1.0
 46
1.0
 77
1
  4

 78
1
 79
1
170
1
 48
1.0
171
1
  6

172
1
173
1
174
1
140
1.0
141
1.0
175
1
  7

176
1
177
1
178
1
143
1.0
179
1
  8

270
1
271
1
272
1
145
1.0
146
1.0
273
1
  9

274
1
275
1
276
1
 42
1.0
 72
1
  3

 73
1
 74
1
 75
1
 94
63
  0
MATERIAL
  5
21
102
{ACAD_REACTORS
330
E
102
}
330
E
100
AcDbMaterial
  1
Global
  2

 70
0
 40
1.0
 71
1
 41
1.0
 91
-1023410177
 42
1.0
 72
1
  3

 73
1
 74
1
 75
1
 44
0.5
 73
0
 45
1.0
 46
1.0
 77
1
  4

 78
1
 79
1
170
1
 48
1.0
171
1
  6

172
1
173
1
174
1
140
1.0
141
1.0
175
1
  7

176
1
177
1
178
1
143
1.0
179
1
  8

270
1
271
1
272
1
145
1.0
146
1.0
273
1
  9

274
1
275
1
276
1
 42
1.0
 72
1
  3

 73
1
 74
1
 75
1
 94
63
  0
MLINESTYLE
  5
22
102
{ACAD_REACTORS
330
10
102
}
330
10
100
AcDbMlineStyle
  2
Standard
 70
0
  3

 62
256
 51
90.0
 52
90.0
 71
2
 49
0.5
 62
256
  6
BYLAYER
 49
-0.5
 62
256
  6
BYLAYER
  0
MLEADERSTYLE
  5
2C
102
{ACAD_REACTORS
330
F
102
}
330
F
100
AcDbMLeaderStyle
179
2
170
2
171
1
172
0
 90
2
 40
0.0
 41
0.0
173
1
 91
-1056964608
 92
-2
290
1
 42
2.0
291
1
 43
8.0
  3
Standard
 44
4.0
300

342
29
174
1
175
1
176
0
178
1
 93
-1056964608
 45
4.0
292
0
297
0
 46
4.0
 94
-1056964608
 47
1.0
 49
1.0
140
1.0
294
1
141
0.0
177
0
142
1.0
295
0
296
0
143
3.75
271
0
272
9
273
9
  0
DICTIONARY
  5
2D
330
A
100
AcDbDictionary
281
1
  3
CREATED_BY_EZDXF
350
2E
  3
WRITTEN_BY_EZDXF
350
222
  0
DICTIONARYVAR
  5
2E
330
2D
100
DictionaryVariables
280
0
  1
1.2.0 @ 2026-02-13T01:39:30.372306+00:00
  0
DICTIONARYVAR
  5
222
330
2D
100
DictionaryVariables
280
0
  1
1.2.0 @ 2026-02-13T01:39:30.381931+00:00
  0
ENDSEC
  0
EOF
